<?xml version="1.0" encoding="utf-8"?>
<!-- Generator: Adobe Illustrator 16.0.0, SVG Export Plug-In . SVG Version: 6.00 Build 0)  -->
<!DOCTYPE svg PUBLIC "-//W3C//DTD SVG 1.1//EN" "http://www.w3.org/Graphics/SVG/1.1/DTD/svg11.dtd">
<svg version="1.1" id="bg" xmlns="http://www.w3.org/2000/svg" xmlns:xlink="http://www.w3.org/1999/xlink" x="0px" y="0px"
	 width="1024px" height="900px" viewBox="0 0 1024 900" enable-background="new 0 0 1024 900" xml:space="preserve">
<rect fill="#05476D" width="1024" height="529"/>
<radialGradient id="SVGID_1_" cx="268" cy="574.7324" r="517.1719" gradientTransform="matrix(1 0 0 -1 244 995)" gradientUnits="userSpaceOnUse">
	<stop  offset="0.5687" style="stop-color:#00153A;stop-opacity:0"/>
	<stop  offset="1" style="stop-color:#00153A"/>
</radialGradient>
<rect fill="url(#SVGID_1_)" width="1024" height="513"/>
<path opacity="0.2" fill="#2152A3" enable-background="new    " d="M-0.681,227.91c0,0,29.381-12.597,49.266-13.308
	c19.635-0.702,79.813-11.448,91.483-15.333c14.827-4.937,27.713-13.759,42.442-19.534c17.481-6.854,73.7-24.235,85.093-27.832
	c23.293-7.353,55.011-0.867,79.491-3.304c23.632-2.352,46.104-6.342,70.424-1.452c24.664,4.959,49.213-4.486,75.069-6.043
	c24.806-1.493,45.616,4.883,69.538,7.228c45.812,4.489,97.233-5.379,141.958-14.394c22.278-4.49,28.144-2.308,50.463-4.336
	c15.761-1.433,59.14-7.135,91.677,4.505c54.506,19.499-22.063-40.348-59.775-32.667c-27.085,5.516-44.631,3.94-71.941,6.671
	c-26.734,2.673-52.934,10.718-79.419,10.494c-38.377-0.324-78.089-12.334-116.66-15.333c-28.419-2.209-48.892-17.872-76.83-20.631
	c-37.418-3.695-73.522-7.021-110.661-4.868c-26.068,1.511-47.867-7.371-72.33-8.666c-25.752-1.363-51.776,1.428-76.574,4.833
	c-32.403,4.45-66.399,3.743-97.809,15.048C54.711,99.611,0,123.106,0,123.106L-0.681,227.91z"/>
<path opacity="0.05" fill="#26ADDD" enable-background="new    " d="M165.609,200.105c16.3-14.571,37.159-21.912,58.497-27.328
	c22.588-5.733,48.055-16.57,70.472-19.17c29.5-3.422,57.183,0.063,87.02-1.5c23.681-1.241,44.016,4.132,67.497,3
	c25.61-1.234,49.104,1.732,73.497,7.542c24.57,5.852,50.861,2.102,75.073-1.5c23.728-3.529,48.701-8.71,71.842-12.085
	c24.717-3.605,46.902-11.981,72.074-11.957c20.317,0.02,39.645-2.999,59.997-3c20.268-0.001,33.124,4.775,50.997,10.828
	c18.627,6.308,37.698,7.015,57.073,11.628c10.984,2.615,16.611,9.555,25.757,13.244c9.211,3.715-21.099-4.873-43.909-5.701
	c-22.833-0.829-43.87-8.206-67.42-10.577c-22.326-2.248-48.085-5.161-68.919-4.344c-25.461,0.998-46.765,6.536-70.573,10.053
	c-12.49,1.846-61.158,4.189-73.42,7.874c-23.216,6.975-44.459,11.035-69.038,13.494c-24.492,2.451-49.137-1.753-73.532-4.167
	c-25.131-2.485-49.643,0.584-73.501-0.339c-10.33-0.4-49.032,1.921-58.492,1.5c-19.194-0.854-36.571-5.128-56.997-2.995
	c-36.784,3.842-109.168,26.464-109.495,26.999"/>
<path opacity="0.15" fill="none" stroke="#BBEAFF" stroke-miterlimit="10" enable-background="new    " d="M982.568,314.099
	c-14.941,7.227-46.431-6.742-61.058-11.965c-35.308-12.605-75.571-21.694-106.554-43.46c-19.391-13.623-40.291-42.714-25.909-67.348
	c10.915-18.697,42.961-17.715,55.562-1.799c30.808,38.917-31.572,60.168-57.026,67.569c-36.491,10.61-72.985,10.082-110.922,8.671
	c-53.935-2.005-107.798-2.667-161.87-2.667c-66.951,0-133.044,0.007-199.618,5.594c-48.104,4.037-92.73,15.405-141.065,15.405"/>
<g>
	
		<image overflow="visible" enable-background="new    " width="1001" height="243" xlink:href="40035F7B19B6F354.png"  transform="matrix(1 0 0 1 14 276)">
	</image>
</g>
<path fill="#E1EDF8" d="M1024,899H0V376.184c0,0,218.544-46.993,512.59-47.585c308.338-0.62,511.41,47.585,511.41,47.585V899z"/>
<path fill="#CFDFF3" d="M0.613,491.592c12.518-1.175,14.376-14.963,26.972-20.13c14.409-5.91,13.409-3.91,31.228-3.643
	c5.312,14.837,26.169,29.196,40.481,33.066c10.476,2.833,39.561,8.697,50.311,8.704c13.187,0.008,19.033,3.594,31.458,3.539
	c29.404-0.13,44.827-3.047,64.126-14.41c18.003-10.601,32.488-22.19,52.908-18.128c6.994,1.393,18.327-5.456,18.261,3.238
	c15.987,0.964,22.824,4.417,29.367,14.832c2.559,4.073,7.832,6.123,10.497,9.302c2.626,3.132,5.387,8.951,7.835,11.662
	c19.263,21.333,42.077,21.982,67.534,26.962c25.562,5.001,46.244,5.084,73.497,5.999c24.434,0.82,46.646,1.076,71.996-2.665
	c18.76-2.77,79.571-18.922,79.646-40.795c6.646-7.647,14.921-8.034,23.328-10.614c-1.122-0.167-2.334,0.31-3.459,0.154
	c14.675-6.145,26.226-12.832,41.479-18.039c16.16-5.516,29.836-8.827,46.492-12.041c15.726-3.035,27.979,5.391,43.468,10.539
	c7.536,2.505,40.551,11.931,42.658,15.007c15.284,4.522,30.293,0.355,45.873,0.457c12.146,0.079,39.409-6.508,49.902-13.128
	c13.13-8.284,15.302-22.803,29.628-29.37c16.455-7.542,47.9-2.778,47.9-2.778V900H0"/>
<path fill="#97B0C6" d="M482.45,798.333c0,23.9-56.964,43.275-127.232,43.275c-33.491,0-64.96-1.401-87.68-8.598
	c-24.949-7.9-49.594-16.623-39.553-34.679c11.616-20.888,44.062-28.007,120.203-36.692c26.965-3.075,71.021-2.542,91.676,2.385
	C472.688,771.851,482.45,783.664,482.45,798.333z"/>
<path fill="#97B0C6" d="M954.261,450.435c0,16.408-35.362,29.71-78.984,29.71s-65.664-14.08-77.317-23.611
	c-12.701-10.389-3.38-34.949,50.379-36.007c36.274-0.714,47.425,2.996,62.44,7.025C943.352,436.293,954.261,438.128,954.261,450.435
	z"/>
<path fill="#97B0C6" d="M1006.436,798.355c5.883,10.174-14.966,22.512-39.78,30.826c-30.83,10.331-92.96,16.654-144.391,16.654
	c-92.825,0-161.936-23.08-151.979-47.48c15.758-38.625,96.743-55.331,189.327-48.634
	C962.595,757.173,994.656,777.984,1006.436,798.355z"/>
<path fill="#97B0C6" d="M263.87,464.16c0,11.545-6.058,19.111-38.182,30.607c-14.431,5.165-43.854,7.996-67.466,3.729
	c-52.379-9.465-87.106-16.329-87.106-34.338c0-12.663,21.333-23.642,52.5-29.042c13.16-2.281,28.074-3.567,43.876-3.567
	C220.72,431.551,263.87,446.15,263.87,464.16z"/>
<ellipse fill="#97B0C6" cx="505.449" cy="502.043" rx="128.261" ry="38.406"/>
<path fill="#F7FAFE" d="M627.119,489.862c0,0-26.119-26.226-106.119-32.195c-78.519-5.86-152.667,11.446-152.667,40.903
	c6,42.416,154.043,41.879,154.043,41.879s-148.275,2.116-141.995-42.502c1.257-19.029,84.823-37.336,148.618-34.311
	C587.711,466.422,627.119,489.862,627.119,489.862z"/>
<path fill="#C3D3E5" d="M661.11,502.765c5.89,13.235,5.174,29.649-10.226,40.151c-37.842,31.902-228.295,1.668-228.295,1.668
	s161.69,12.249,207.12-9.251C647.809,525.781,657,521.333,661.11,502.765z"/>
<linearGradient id="SVGID_2_" gradientUnits="userSpaceOnUse" x1="278.1411" y1="536.207" x2="231.5004" y2="436.1857" gradientTransform="matrix(1 0 0 -1 244 995)">
	<stop  offset="0" style="stop-color:#7F94A3;stop-opacity:0.5"/>
	<stop  offset="0.3817" style="stop-color:#7A8F9D;stop-opacity:0.7236"/>
	<stop  offset="0.8535" style="stop-color:#6B818E"/>
</linearGradient>
<path fill="url(#SVGID_2_)" d="M617.041,519.986c0.48,5.6-58.649,20.98-105.041,20.98c-36.105,0-72.657-6.531-98.319-12.393
	c-5.387-1.23-40.982-11.74-30.914-35.873c5.007-12,88.9-32.368,134.9-27.702C563.821,469.682,615.821,505.775,617.041,519.986z"/>
<linearGradient id="SVGID_3_" gradientUnits="userSpaceOnUse" x1="160.6538" y1="469.4443" x2="361.4932" y2="469.4443" gradientTransform="matrix(0.9993 0.0373 0.0373 -0.9993 231.8521 980.6028)">
	<stop  offset="0" style="stop-color:#6B818E"/>
	<stop  offset="0.8535" style="stop-color:#6B818E"/>
</linearGradient>
<path fill="url(#SVGID_3_)" d="M610.366,519.644c6.075,8.116-59.751,22.895-104.856,21.212
	c-35.104-1.312-70.441-7.959-95.215-13.664c-5.201-1.197,16.039-25.147,119.044-24.825
	C574.476,502.507,602.947,509.732,610.366,519.644z"/>
<path fill="#CFDFF3" d="M744.576,416.073c8.999,15.837-27.87,23.52-58.485,23.52c-30.614,0-52.908-4.627-58.972-18.868
	c-6.591-15.478,20.749-19.937,51.363-19.937C709.098,400.788,740.354,408.641,744.576,416.073z"/>
<path fill="#CFDFF3" d="M446.091,400.788c0,13.268-31.897,11.354-71.247,11.354c-39.349,0-76.247-14.022-76.247-27.291
	c0-13.268,34.575-21.104,76.247-18.755C418.202,368.542,446.091,387.52,446.091,400.788z"/>
<path fill="#C3D3E5" d="M42.402,733.849c-9.476,18.714,29.348,27.792,61.586,27.792c32.237,0,55.713-5.469,62.098-22.295
	c6.94-18.29-21.849-23.558-54.086-23.558C79.762,715.788,46.85,725.066,42.402,733.849z"/>
<path fill="#C3D3E5" d="M822.265,606.622c-0.099,26.435,28.806,34.134,79.515,32.458c42.252-1.396,77.24-9.08,79.419-22.167
	c2.178-13.088-33.181-26.917-77.729-31.947C857.115,579.732,822.314,593.354,822.265,606.622z"/>
<linearGradient id="SVGID_4_" gradientUnits="userSpaceOnUse" x1="-56.5791" y1="567.5947" x2="-105.2446" y2="483.3036" gradientTransform="matrix(1 0 0 -1 244 995)">
	<stop  offset="0" style="stop-color:#7F94A3;stop-opacity:0.5"/>
	<stop  offset="0.3817" style="stop-color:#7A8F9D;stop-opacity:0.7236"/>
	<stop  offset="0.8535" style="stop-color:#6B818E"/>
</linearGradient>
<path fill="url(#SVGID_4_)" d="M251.756,483.156c-5.766,3.598-14.112,7.333-26.069,11.611c-14.431,5.165-43.854,7.996-67.465,3.729
	c-52.379-9.465-87.106-16.329-87.106-34.338c0-12.663,21.333-23.642,52.5-29.042c13.16-2.281,28.074-3.567,43.876-3.567
	C220.721,431.551,261.482,477.088,251.756,483.156z"/>
<linearGradient id="SVGID_5_" gradientUnits="userSpaceOnUse" x1="-156.7588" y1="511.6816" x2="6.7285" y2="511.6816" gradientTransform="matrix(1 0 0 -1 244 995)">
	<stop  offset="0" style="stop-color:#6B818E"/>
	<stop  offset="0.8535" style="stop-color:#6B818E"/>
</linearGradient>
<path fill="url(#SVGID_5_)" d="M248.157,485.239c-5.492,2.964-12.8,6.067-22.469,9.528c-14.431,5.165-43.854,7.996-67.466,3.729
	c-29.496-5.33-53.393-9.835-68.645-15.969c-11.833-4.761,22.386-16.466,77.916-16.466C225,466.062,260.91,478.356,248.157,485.239z"
	/>
<path fill="#F7FAFE" d="M60.627,456.023c28-49.532,171.03-21.164,177.368-14.095C164.333,425,87.863,431.067,71.765,460.367
	c-8.765,23.966,63.024,33.786,63.024,33.786S51.294,484.222,60.627,456.023z"/>
<path fill="#C3D3E5" d="M266.768,484.561c0,0,0.899,17.106-21.768,29.106c-8.873,4.697-37.238,6.19-62,3.25
	c-38.495-4.57-75.818-16.342-75.818-16.342s45.74,7.395,60.311,8.975c14.571,1.58,42.841,2.117,62.841-5.217
	C248.333,501,266.768,484.561,266.768,484.561z"/>
<linearGradient id="SVGID_6_" gradientUnits="userSpaceOnUse" x1="640.2002" y1="574.4043" x2="609.7885" y2="509.1865" gradientTransform="matrix(1 0 0 -1 244 995)">
	<stop  offset="0" style="stop-color:#7F94A3;stop-opacity:0.5"/>
	<stop  offset="0.3817" style="stop-color:#7A8F9D;stop-opacity:0.7236"/>
	<stop  offset="0.8535" style="stop-color:#6B818E"/>
</linearGradient>
<path fill="url(#SVGID_6_)" d="M944.148,464.986c-11.99,10.664-36.157,15.157-68.873,15.157c-43.622,0-65.664-14.081-77.317-23.611
	c-12.701-10.389-3.39-35.857,50.379-36.007c14.469-0.041,26.142-1.105,34.812,1.169
	C915.771,430.252,948.146,461.433,944.148,464.986z"/>
<linearGradient id="SVGID_7_" gradientUnits="userSpaceOnUse" x1="641.0986" y1="555.3574" x2="617.86" y2="505.522" gradientTransform="matrix(1 0 0 -1 244 995)">
	<stop  offset="0" style="stop-color:#6B818E"/>
	<stop  offset="0.8535" style="stop-color:#6B818E"/>
</linearGradient>
<path fill="url(#SVGID_7_)" d="M938.487,468.562c-14.38,5.646-40.828,12.982-63.212,11.581c-32.349-2.024-53.012-7.33-67.431-16.507
	c-7.565-4.814,41.943-18.333,81.821-13.347C922.752,454.428,944.648,466.143,938.487,468.562z"/>
<path fill="#F7FAFE" d="M781,443c2.667-14,37.79-28.153,69.333-26.667c46.66,2.198,94.151,21.214,94.151,21.214
	s-49.488-16.55-92.817-16.548c-28.416,0.001-56.082,11.035-58.759,24.83c-1.297,24.502,63.425,34.504,85.425,34.489
	C853.426,485.886,775,476.334,781,443z"/>
<path fill="#C3D3E5" d="M961.383,464.762c0,0-5.999,8.9-21.856,18.569c-15.858,9.669-63.71,13.056-87.83,8.802
	s-58.786-21.289-58.786-21.289s49.717,28.353,84.236,31.921c34.521,3.569,58.155-5.026,67.339-10.062
	C953.668,487.668,961.383,464.762,961.383,464.762z"/>
<g>
	<path fill="#97B0C6" d="M337.688,614.131c0,11.644-23.81,27.587-62.383,36.414c-24.098,5.516-78.72,5.75-112.137,5.75
		c-78.091,0-108.271-21.812-108.271-42.164c0-15.764,29.812-31.586,83.221-36.851c15.548-1.532,40.567,0,58.175,0
		C274.384,577.28,337.688,593.778,337.688,614.131z"/>
	
		<linearGradient id="SVGID_8_" gradientUnits="userSpaceOnUse" x1="-29.2178" y1="431.5229" x2="-97.5049" y2="313.2462" gradientTransform="matrix(1 0 0 -1 244 995)">
		<stop  offset="0" style="stop-color:#7F94A3;stop-opacity:0.5"/>
		<stop  offset="0.3817" style="stop-color:#7A8F9D;stop-opacity:0.7236"/>
		<stop  offset="0.8535" style="stop-color:#6B818E"/>
	</linearGradient>
	<path fill="url(#SVGID_8_)" d="M295.961,644.704c-4.767,1.472-15.294,4.614-20.656,5.841c-24.099,5.516-78.72,5.75-112.137,5.75
		c-78.091,0-108.271-21.812-108.271-42.164c0-15.764,29.812-31.586,83.221-36.851c15.548-1.532,40.567,0,58.175,0
		C276.495,577.28,326.974,635.132,295.961,644.704z"/>
	
		<linearGradient id="SVGID_9_" gradientUnits="userSpaceOnUse" x1="-166.6924" y1="354.6206" x2="51.9614" y2="354.6206" gradientTransform="matrix(1 0 0 -1 244 995)">
		<stop  offset="0" style="stop-color:#6B818E"/>
		<stop  offset="0.8535" style="stop-color:#6B818E"/>
	</linearGradient>
	<path fill="url(#SVGID_9_)" d="M283.498,648.15c-24.098,5.515-86.913,8.145-120.33,8.145c-38.816,0-65.795-5.39-83.114-13.311
		c-17.522-8.014,52.377-21.245,107.751-18.025C265.764,629.49,322.072,639.323,283.498,648.15z"/>
	<path fill="#E1EDF8" d="M40.951,616.447c0-28.977,26.125-38.513,86.971-47.358c60.847-8.847,161.87,17.401,161.87,17.401
		s-117.11-15.597-157.015-8.64c-39.905,6.958-75.998,16.978-77.88,36.279c-4.241,43.508,125.155,42.164,125.155,42.164
		S40.951,665.247,40.951,616.447z"/>
	<path fill="#C3D3E5" d="M325.657,593.414c0,0,26.564,7.957,24.451,20.717c-2.113,12.76-11.706,25.604-55.156,38.85
		c-31.669,9.652-162.231,12.268-162.231,12.268s126.52,9.118,167.56-0.689c50.934-12.173,72.524-33.802,73.158-46.357
		C374.071,605.643,325.657,593.414,325.657,593.414z"/>
</g>
<linearGradient id="SVGID_10_" gradientUnits="userSpaceOnUse" x1="134.6338" y1="243.2305" x2="69.2603" y2="130.0001" gradientTransform="matrix(1 0 0 -1 244 995)">
	<stop  offset="0" style="stop-color:#7F94A3;stop-opacity:0.5"/>
	<stop  offset="0.3817" style="stop-color:#7A8F9D;stop-opacity:0.7236"/>
	<stop  offset="0.8535" style="stop-color:#6B818E"/>
</linearGradient>
<path fill="url(#SVGID_10_)" d="M460.763,822.508c-22.858,11.523-61.601,19.102-105.545,19.102c-33.491,0-64.96-1.401-87.68-8.598
	c-24.949-7.9-49.594-16.623-39.553-34.679c11.616-20.888,44.062-28.007,120.203-36.692c13.247-1.512,3.676-2.258,20.359-1.519
	C424.428,762.598,474.456,815.605,460.763,822.508z"/>
<linearGradient id="SVGID_11_" gradientUnits="userSpaceOnUse" x1="4.0132" y1="171.2007" x2="215.6533" y2="171.2007" gradientTransform="matrix(1 0 0 -1 244 995)">
	<stop  offset="0" style="stop-color:#6B818E"/>
	<stop  offset="0.8535" style="stop-color:#6B818E"/>
</linearGradient>
<path fill="url(#SVGID_11_)" d="M455.881,824.803c-23.271,10.226-59.708,16.807-100.663,16.807c-33.491,0-64.96-1.401-87.68-8.598
	c-5.516-1.747-11.016-3.533-16.131-5.453C233.388,820.798,289.367,806.485,366,806C432.5,805.579,472.538,817.485,455.881,824.803z"
	/>
<linearGradient id="SVGID_12_" gradientUnits="userSpaceOnUse" x1="623.8799" y1="264.0728" x2="538.8447" y2="116.7876" gradientTransform="matrix(1 0 0 -1 244 995)">
	<stop  offset="0" style="stop-color:#7F94A3;stop-opacity:0.5"/>
	<stop  offset="0.3817" style="stop-color:#7A8F9D;stop-opacity:0.7236"/>
	<stop  offset="0.8535" style="stop-color:#6B818E"/>
</linearGradient>
<path fill="url(#SVGID_12_)" d="M966.654,829.183c-30.83,10.331-92.96,16.654-144.391,16.654
	c-92.826,0-161.936-23.08-151.979-47.481c15.758-38.623,96.743-55.33,189.327-48.633
	C962.595,757.173,991.47,820.867,966.654,829.183z"/>
<linearGradient id="SVGID_13_" gradientUnits="userSpaceOnUse" x1="454.7168" y1="169.0864" x2="714.1885" y2="169.0864" gradientTransform="matrix(1 0 0 -1 244 995)">
	<stop  offset="0" style="stop-color:#6B818E"/>
	<stop  offset="0.8535" style="stop-color:#6B818E"/>
</linearGradient>
<path fill="url(#SVGID_13_)" d="M957.76,831.831c-32.852,8.752-88.617,14.006-135.495,14.006c-48.027,0-89.707-6.179-117.37-15.521
	C679.09,821.6,736.714,805.99,829.54,805.99C949,805.989,960.95,830.98,957.76,831.831z"/>
<g>
	<path fill="#97B0C6" d="M752.942,653.492c0,18.811-17.194,24.633-75.658,32.059c-21.891,2.78-67.689,5.118-84.284,1.049
		c-25.239-6.188-41.507-21.759-41.507-33.106c0-18.811,26.997-33.508,82.626-33.508c18.685,0,62.287,1.438,76.881,6.016
		C735.024,633.535,752.942,641,752.942,653.492z"/>
	
		<linearGradient id="SVGID_14_" gradientUnits="userSpaceOnUse" x1="426.1528" y1="374.8052" x2="376.4297" y2="288.6822" gradientTransform="matrix(1 0 0 -1 244 995)">
		<stop  offset="0" style="stop-color:#7F94A3;stop-opacity:0.5"/>
		<stop  offset="0.3817" style="stop-color:#7A8F9D;stop-opacity:0.7236"/>
		<stop  offset="0.8535" style="stop-color:#6B818E"/>
	</linearGradient>
	<path fill="url(#SVGID_14_)" d="M743.162,670.752c-16.828,6.248-7.495,4.248-65.878,14.799c-21.891,2.78-67.689,5.118-84.284,1.049
		c-25.239-6.188-41.507-21.759-41.507-33.106c0-18.811,30.174-33.505,74.636-33.402c18.686,0.043,17.988-0.325,25.604,0.186
		C676.854,621.956,743.162,658.26,743.162,670.752z"/>
	
		<linearGradient id="SVGID_15_" gradientUnits="userSpaceOnUse" x1="316.2622" y1="326.2861" x2="499.2007" y2="326.2861" gradientTransform="matrix(1 0 0 -1 244 995)">
		<stop  offset="0" style="stop-color:#6B818E"/>
		<stop  offset="0.8535" style="stop-color:#6B818E"/>
	</linearGradient>
	<path fill="url(#SVGID_15_)" d="M743.162,670.752c-10.682,7.429-20.606,8.803-65.878,14.553
		c-21.891,2.78-67.689,4.995-84.284,0.927c-14.09-3.455-25.383-9.669-32.611-16.571c-2.922-2.79,45.354-19.567,94.771-20.659
		C702.497,647.954,744.656,669.713,743.162,670.752z"/>
	<path fill="#E1EDF8" d="M543.559,640.379C569.559,593.379,720,628,720,628s-133-25-163.467,12.379
		c-28.365,34.801,54.226,48.844,54.226,48.844S517.559,687.379,543.559,640.379z"/>
	<path fill="#C3D3E5" d="M704.468,624.464c3,0.017,71.532,14.741,53.532,44.639c-18,29.898-173,21.881-169,19.688S751,713,772,678
		S704.468,624.464,704.468,624.464z"/>
</g>
<path fill="#E1EDF8" d="M652.218,789.248c40-73.333,283.062-29.414,283.062-29.414s-53.707-11.266-113.016-11.549
	c-64.646-0.31-135.961,11.812-151.979,50.07c-7.95,35.312,104.938,45.401,104.938,45.401S630.218,841.248,652.218,789.248z"/>
<path fill="#C3D3E5" d="M1010.334,805.989c0,0-7.333,22.895-68,35.619c-60.667,12.724-152.932,10.906-199.133,2.148
	s141.133,36.576,209.133,19.909S1010.334,805.989,1010.334,805.989z"/>
<path fill="#C3D3E5" d="M517.026,687.229c6.039,12.397-18.703,18.412-39.248,18.412c-20.544,0-35.507-3.623-39.575-14.771
	c-4.422-12.117,13.924-15.606,34.469-15.606C493.218,675.264,514.193,681.41,517.026,687.229z"/>
<path fill="#E1EDF8" d="M418.333,759.731c0,0-186.667-9.885-206,35.857s108,46.02,108,46.02s-95.958-9.962-94.646-35.619
	C230.334,756.332,418.333,759.731,418.333,759.731z"/>
<path fill="#C3D3E5" d="M477.745,779.248c0,0,9.922,9.064,8.589,24.741c-12,50.343-181.127,37.619-181.127,37.619
	s179.127,22.724,198.46-15.695C509,805.666,477.745,779.248,477.745,779.248z"/>
<path fill="#E1EDF8" d="M268.28,82.5c1.647,0.772,9.456-1.349,9.456-1.349s-6.568,3.776-7.5,5.915
	c-0.932,2.138,1.349,9.456,1.349,9.456s-4.085-6.746-5.914-7.5s-9.456,1.349-9.456,1.349s6.75-4.418,7.5-5.914
	c0.751-1.496-1.349-9.456-1.349-9.456S266.632,81.728,268.28,82.5z"/>
<path fill="#E1EDF8" d="M944.131,243.988c1.371,1.198,9.461,1.318,9.461,1.318s-7.356,1.813-8.844,3.61s-1.318,9.46-1.318,9.46
	s-2.061-7.613-3.608-8.843c-1.55-1.231-9.461-1.319-9.461-1.319s7.709-2.38,8.844-3.609c1.135-1.23,1.317-9.46,1.317-9.46
	S942.761,242.79,944.131,243.988z"/>
<path fill="#E1EDF8" d="M91.22,290.437c0.794,0.89,6.043,1.622,6.043,1.622s-4.929,0.584-6.041,1.632
	c-1.111,1.048-1.622,6.043-1.622,6.043s-0.724-5.116-1.632-6.041c-0.907-0.925-6.043-1.622-6.043-1.622s5.204-0.924,6.041-1.631
	c0.837-0.708,1.622-6.043,1.622-6.043S90.426,289.548,91.22,290.437z"/>
<path fill="#E1EDF8" d="M654.37,201.831c0.865,0.971,6.592,1.769,6.592,1.769s-5.377,0.637-6.59,1.78
	c-1.213,1.144-1.77,6.593-1.77,6.593s-0.791-5.581-1.779-6.589c-0.989-1.008-6.594-1.77-6.594-1.77s5.678-1.008,6.591-1.779
	c0.914-0.772,1.77-6.592,1.77-6.592S653.503,200.861,654.37,201.831z"/>
<path fill="#E1EDF8" d="M844.058,48.319c0.714,0.8,5.433,1.458,5.433,1.458s-4.43,0.525-5.43,1.467
	c-1,0.942-1.457,5.432-1.457,5.432s-0.651-4.598-1.468-5.429c-0.814-0.831-5.433-1.458-5.433-1.458s4.678-0.831,5.43-1.466
	c0.753-0.636,1.458-5.431,1.458-5.431S843.343,47.521,844.058,48.319z"/>
<circle fill="#FFFFFF" cx="322.676" cy="233.167" r="2.528"/>
<circle fill="#FFFFFF" cx="545.321" cy="51.504" r="3.221"/>
<circle fill="#FFFFFF" cx="803.037" cy="296.101" r="4.035"/>
<circle fill="#FFFFFF" cx="161.73" cy="150.922" r="3.526"/>
<circle fill="#FFFFFF" cx="43.564" cy="50.896" r="3.057"/>
<circle fill="#FFFFFF" cx="804.676" cy="165.167" r="2.527"/>
</svg>
