<?xml version="1.0" encoding="utf-8"?>
<!-- Generator: Adobe Illustrator 16.0.0, SVG Export Plug-In . SVG Version: 6.00 Build 0)  -->
<!DOCTYPE svg PUBLIC "-//W3C//DTD SVG 1.1//EN" "http://www.w3.org/Graphics/SVG/1.1/DTD/svg11.dtd">
<svg version="1.1" id="Layer_1" xmlns="http://www.w3.org/2000/svg" xmlns:xlink="http://www.w3.org/1999/xlink" x="0px" y="0px"
	 width="222px" height="210px" viewBox="0 0 222 210" enable-background="new 0 0 222 210" xml:space="preserve">
<g>
	<path opacity="0.6" fill="#FFFFFF" d="M175.693,131.436c1.222-4.355,4.838-10.404,10.725-18.971
		c8.127-11.828,20.823-16.499,29.714-7.924c9.59,9.25,2.295,20.966-10.324,27.8c-3.571,1.935-6.983,3.525-10.144,4.76
		c1.047,1.397,2.034,2.924,2.933,4.566c5.608,10.244,5.668,21.005,0.132,24.034c-5.535,3.032-14.568-2.814-20.177-13.059
		C174.111,144.532,173.152,136.102,175.693,131.436z"/>
	<path opacity="0.6" fill="#FFFFFF" d="M45.602,131.436c-1.223-4.355-4.839-10.404-10.726-18.971
		c-8.126-11.828-20.823-16.499-29.714-7.924c-9.59,9.25-2.295,20.966,10.324,27.8c3.572,1.935,6.983,3.525,10.144,4.76
		c-1.046,1.397-2.034,2.924-2.933,4.566c-5.607,10.244-5.668,21.005-0.132,24.034c5.536,3.032,14.568-2.814,20.177-13.059
		C47.183,144.532,48.142,136.102,45.602,131.436z"/>
	<path fill="#2453A3" d="M188.197,111.295c-12.76,60.833-40.345,97.672-75.436,97.672c-36.365,0-68.752-43.455-76.408-97.672
		C29.133,60.154,54.218,6.719,112.275,6.719C170.334,6.719,198.8,60.747,188.197,111.295z"/>
	<path fill="#3A6DB5" d="M117.994,15.288c4.254,0.597,55.447-1.104,66.856,70.354C162.231,19.287,117.994,15.288,117.994,15.288z"/>
	<path opacity="0.8" fill="#1B4688" d="M111.911,208.967c-36.365,0-68.752-43.455-76.408-97.672
		c-2.605-18.458-1.003-37.215,4.839-53.65c5.521-15.532,13.896,42.725,35.349,87.276
		C94.432,183.843,128.273,208.967,111.911,208.967z"/>
	<path fill="#3A6DB5" d="M163.3,161.271c-5.421,32.464-26.532,46.845-49.605,46.845c-23.913,0-45.21-18.48-50.245-46.845
		c-4.748-26.754,11.749-43.65,49.925-43.65C151.552,117.621,168.186,132.006,163.3,161.271z"/>
	<circle fill="#010101" cx="81.568" cy="73.625" r="8.362"/>
	<circle fill="#010101" cx="143.932" cy="73.625" r="8.361"/>
	<circle fill="#FFFFFF" cx="85.877" cy="71.852" r="2.026"/>
	<path fill="#FFFFFF" d="M150.266,71.852c0,1.118-0.908,2.025-2.024,2.025c-1.121,0-2.028-0.907-2.028-2.025
		c0-1.119,0.907-2.025,2.028-2.025C149.357,69.826,150.266,70.732,150.266,71.852z"/>
	<path fill="none" stroke="#2453A3" stroke-width="2" stroke-miterlimit="10" d="M77.466,140.533c0,0,12.96,5.966,35.804,5.966
		c22.846,0,33.522-7.83,33.522-7.83"/>
	<path fill="none" stroke="#4980C2" stroke-miterlimit="10" d="M77.466,141.279c0,0,12.96,5.965,35.804,5.965
		c22.846,0,33.522-7.829,33.522-7.829"/>
	<g>
		<path fill="none" stroke="#2453A3" stroke-width="2" stroke-miterlimit="10" d="M77.466,150.974c0,0,12.96,5.965,35.804,5.965
			c22.846,0,33.522-7.83,33.522-7.83"/>
		<path fill="none" stroke="#4980C2" stroke-miterlimit="10" d="M77.466,151.719c0,0,12.96,5.966,35.804,5.966
			c22.846,0,33.522-7.83,33.522-7.83"/>
	</g>
	<path fill="none" stroke="#2453A3" stroke-width="2" stroke-miterlimit="10" d="M77.466,162.159c0,0,12.96,5.966,35.804,5.966
		c22.846,0,33.522-7.83,33.522-7.83"/>
	<path fill="none" stroke="#4980C2" stroke-miterlimit="10" d="M77.466,162.904c0,0,12.96,5.967,35.804,5.967
		c22.846,0,33.522-7.831,33.522-7.831"/>
	<g>
		<path fill="none" stroke="#2453A3" stroke-width="2" stroke-miterlimit="10" d="M80.822,173.345c0,0,12.236,5.966,33.809,5.966
			c21.57,0,31.652-7.83,31.652-7.83"/>
		<path fill="none" stroke="#4980C2" stroke-miterlimit="10" d="M80.822,174.09c0,0,12.236,5.966,33.809,5.966
			c21.57,0,31.652-7.83,31.652-7.83"/>
	</g>
	<g>
		<path fill="none" stroke="#2453A3" stroke-width="2" stroke-miterlimit="10" d="M84.923,184.529c0,0,10.972,5.966,30.311,5.966
			c19.34,0,28.379-7.829,28.379-7.829"/>
		<path fill="none" stroke="#4980C2" stroke-miterlimit="10" d="M84.923,185.275c0,0,10.972,5.966,30.311,5.966
			c19.34,0,28.379-7.83,28.379-7.83"/>
	</g>
	<ellipse fill="#010101" cx="113.958" cy="98.055" rx="24.028" ry="14.537"/>
	<path fill="#FFFFFF" d="M93.248,90.631c0.264-0.249,5.856,5.602,6.882,6.497c1.808,1.579,3.083,0.927,3.03-1.611
		c-0.046-2.169-0.08-7.587-0.08-7.587s5.427-1.963,11.329-1.883c5.052,0.067,12.234,2.29,12.234,2.29s-0.674,6.984-0.993,8.791
		c-0.318,1.807,1.17,2.764,2.978,1.275c1.772-1.46,6.942-6.707,6.942-6.707s-5.23-8.181-21.611-8.181
		C97.577,83.516,93.248,90.631,93.248,90.631z"/>
	<path fill="#FFFFFF" d="M105.446,109.666c0,0,0.85-3.544,1.453-5.276s2.396-1.557,2.854,0.339c0.458,1.896,1.011,5.16,1.011,5.16
		l6.091-0.127c0,0,1.376-3.617,1.99-5.545c0.397-1.244,2.198-1.192,2.553,0.142c0.746,2.805,1.275,5.085,1.701,5.308
		c0.425,0.223,5.317,0,5.317,0s-5.308,2.926-14.457,2.926c-9.15,0-14.297-2.853-14.297-2.853L105.446,109.666z"/>
	<g>
		<path fill="#1B4688" d="M114.592,60.973c0,0,0.027,0.169,0.044,0.454c0.032,0.278-0.019,0.696,0.018,1.131
			c0.016,0.218,0.032,0.447,0.03,0.677c-0.016,0.221,0.033,0.493,0.033,0.747c0.014,0.26-0.005,0.521,0.024,0.794
			c0.021,0.271,0.022,0.545,0.026,0.82c0.048,0.555,0.033,1.111,0.06,1.651c-0.004,0.538,0.006,1.053-0.033,1.51
			c-0.03,0.454-0.062,0.846-0.111,1.126c-0.047,0.28-0.091,0.448-0.091,0.448s-0.118-0.122-0.294-0.347
			c-0.169-0.228-0.421-0.551-0.625-0.976c-0.226-0.419-0.448-0.923-0.6-1.496c-0.077-0.285-0.167-0.578-0.198-0.891
			c-0.048-0.31-0.076-0.627-0.105-0.944c0.006-0.323,0.011-0.646,0.035-0.961c0.006-0.315,0.088-0.628,0.153-0.925
			c0.078-0.299,0.125-0.575,0.255-0.849c0.111-0.271,0.237-0.515,0.353-0.733c0.215-0.444,0.516-0.698,0.699-0.919
			C114.462,61.084,114.592,60.973,114.592,60.973z"/>
	</g>
	<g>
		<path fill="#1B4688" d="M169.037,100.104c0,0,0.301,0.556,0.487,1.371c0.215,0.818,0.307,1.896,0.243,2.963
			c-0.143,1.085-0.455,2.16-0.829,2.927c-0.348,0.774-0.753,1.245-0.753,1.245s-0.258-0.589-0.385-1.403
			c-0.157-0.821-0.165-1.864-0.028-2.899c0.07-1.067,0.296-2.125,0.611-2.908C168.67,100.616,169.037,100.104,169.037,100.104z"/>
	</g>
	<g>
		<path fill="#1B4688" d="M76.31,103.508c0,0,0.114,0.08,0.284,0.23c0.169,0.147,0.388,0.372,0.597,0.684
			c0.439,0.603,0.801,1.505,0.89,2.476c0.085,0.964-0.104,2.003-0.599,2.696c-0.239,0.348-0.527,0.595-0.787,0.675
			c-0.107,0.057-0.231,0.042-0.29,0.048c-0.062-0.002-0.095-0.003-0.095-0.003s0.076-0.131,0.101-0.324
			c0.019-0.092,0.015-0.206,0.013-0.33c-0.003-0.118-0.028-0.265-0.039-0.405c-0.095-0.592-0.224-1.365-0.295-2.179
			c-0.068-0.811-0.089-1.66,0-2.348c0.03-0.333,0.088-0.644,0.129-0.866C76.265,103.64,76.31,103.508,76.31,103.508z"/>
	</g>
	<g>
		<path fill="#1B4688" d="M171.589,139.237c0,0,0.353,0.58,0.61,1.464c0.285,0.884,0.462,2.088,0.405,3.316
			c-0.053,0.615-0.116,1.229-0.288,1.797c-0.142,0.568-0.363,1.083-0.6,1.501c-0.199,0.426-0.493,0.738-0.667,0.955
			c-0.188,0.214-0.312,0.324-0.312,0.324s-0.034-0.171-0.065-0.45c-0.041-0.282-0.034-0.653-0.072-1.102
			c-0.033-0.445-0.028-0.94-0.041-1.475c0.018-0.524,0.004-1.096,0.049-1.657c0.059-1.134,0.202-2.295,0.448-3.184
			C171.273,139.839,171.589,139.237,171.589,139.237z"/>
	</g>
	<g>
		<path fill="#1B4688" d="M150.321,103.508c0,0,0.178,0.026,0.47,0.099c0.272,0.065,0.735,0.272,1.148,0.611
			c0.437,0.331,0.868,0.836,1.175,1.441c0.32,0.602,0.534,1.291,0.638,1.973c0.217,1.374,0.037,2.7-0.245,3.658
			c-0.263,0.96-0.634,1.575-0.634,1.575s-0.302-0.655-0.515-1.603c-0.25-0.945-0.395-2.178-0.581-3.319
			c-0.082-0.577-0.185-1.129-0.308-1.634c-0.052-0.259-0.133-0.491-0.193-0.729c-0.089-0.217-0.138-0.458-0.232-0.651
			c-0.176-0.411-0.319-0.734-0.487-1.003C150.4,103.669,150.321,103.508,150.321,103.508z"/>
	</g>
	<g>
		<path fill="#1B4688" d="M176.693,119.671c0,0,0.334,0.435,0.569,1.082c0.121,0.331,0.243,0.701,0.362,1.067
			c0.107,0.374,0.182,0.767,0.218,1.165c0.063,0.407,0.093,0.818,0.082,1.215c-0.021,0.403-0.051,0.772-0.093,1.098
			c-0.077,0.65-0.288,1.179-0.288,1.179s-0.427-0.306-0.827-0.904c-0.104-0.148-0.215-0.312-0.311-0.492
			c-0.081-0.179-0.159-0.369-0.228-0.569c-0.14-0.4-0.247-0.838-0.32-1.281c-0.038-0.46-0.039-0.924-0.001-1.354
			c0.018-0.216,0.048-0.422,0.083-0.615c0.05-0.186,0.117-0.359,0.179-0.52C176.358,120.098,176.693,119.671,176.693,119.671z"/>
	</g>
	<g>
		<path fill="#1B4688" d="M61.848,60.121c0,0,0.064,0.146,0.144,0.396c0.082,0.247,0.163,0.61,0.243,1.015
			c0.057,0.194,0.119,0.399,0.162,0.608c0.046,0.209,0.074,0.423,0.144,0.649c0.059,0.224,0.11,0.453,0.146,0.686
			c0.06,0.223,0.121,0.449,0.182,0.674c0.032,0.236,0.118,0.444,0.188,0.656c0.08,0.206,0.1,0.446,0.202,0.627
			c0.084,0.193,0.154,0.394,0.219,0.594c0.089,0.178,0.178,0.351,0.255,0.526c0.084,0.168,0.146,0.351,0.243,0.475
			c0.09,0.13,0.161,0.265,0.226,0.374c0.126,0.224,0.2,0.376,0.2,0.376s-0.149,0-0.415-0.041c-0.253-0.055-0.68-0.096-1.057-0.363
			c-0.199-0.12-0.43-0.251-0.642-0.424c-0.186-0.19-0.379-0.403-0.568-0.636c-0.21-0.225-0.32-0.504-0.461-0.781
			c-0.144-0.277-0.261-0.569-0.321-0.869c-0.061-0.301-0.143-0.602-0.165-0.899c-0.012-0.296-0.009-0.589,0.004-0.869
			c0.02-0.56,0.192-1.091,0.326-1.508c0.065-0.208,0.176-0.371,0.258-0.529c0.08-0.155,0.171-0.287,0.241-0.396
			C61.746,60.243,61.848,60.121,61.848,60.121z"/>
	</g>
	<g>
		<path fill="#1B4688" d="M88.22,43.958c0,0,0.471,0.49,0.921,1.294c0.234,0.402,0.489,0.86,0.634,1.431
			c0.164,0.558,0.299,1.169,0.398,1.786c0.092,0.615,0.121,1.188,0.124,1.754c-0.001,0.563-0.041,1.092-0.084,1.53
			c-0.076,0.888-0.292,1.562-0.292,1.562s-0.435-0.496-0.839-1.363c-0.229-0.436-0.397-0.941-0.542-1.484
			c-0.148-0.538-0.256-1.148-0.346-1.709c-0.084-0.559-0.132-1.124-0.141-1.668c-0.009-0.272,0.015-0.538-0.011-0.801
			c-0.015-0.26-0.011-0.512-0.006-0.744C88.044,44.621,88.22,43.958,88.22,43.958z"/>
	</g>
	<g>
		<path fill="#1B4688" d="M131.605,44.809c0,0,0.07,0.13,0.162,0.354c0.094,0.22,0.187,0.551,0.293,0.908
			c0.126,0.361,0.193,0.747,0.289,1.186c0.073,0.434,0.14,0.889,0.187,1.345c0.035,0.457,0.072,0.912,0.072,1.347
			c0.016,0.431-0.01,0.848-0.027,1.21c-0.024,0.37-0.05,0.683-0.07,0.918c-0.026,0.236-0.055,0.388-0.055,0.388
			s-0.122-0.074-0.311-0.231c-0.189-0.157-0.452-0.404-0.663-0.743c-0.253-0.331-0.445-0.75-0.617-1.214
			c-0.091-0.232-0.144-0.475-0.199-0.725c-0.058-0.249-0.101-0.505-0.12-0.762c-0.047-0.514-0.038-1.03,0.035-1.511
			c0.052-0.475,0.198-0.94,0.34-1.31c0.133-0.373,0.325-0.645,0.453-0.85C131.51,44.921,131.605,44.809,131.605,44.809z"/>
	</g>
	<g>
		<path fill="#1B4688" d="M163.082,60.973c0,0,0.301,0.66,0.488,1.636c0.049,0.244,0.103,0.509,0.138,0.787
			c0.023,0.285,0.121,0.55,0.164,0.839c0.109,0.57,0.184,1.17,0.22,1.773c0.077,0.618,0.132,1.245,0.139,1.838
			c-0.005,0.595-0.002,1.158-0.039,1.651c-0.052,0.98-0.259,1.683-0.259,1.683s-0.451-0.56-0.87-1.473
			c-0.228-0.453-0.439-0.993-0.586-1.596c-0.156-0.601-0.288-1.247-0.374-1.904c-0.038-0.681-0.038-1.365,0.001-1.998
			c0.028-0.312,0.029-0.628,0.107-0.896c0.063-0.273,0.144-0.53,0.218-0.768C162.715,61.597,163.082,60.973,163.082,60.973z"/>
	</g>
	<g>
		<path fill="#1B4688" d="M178.395,72.882c0,0,0.35,0.58,0.608,1.455c0.146,0.437,0.253,0.957,0.384,1.479
			c0.118,0.529,0.203,1.091,0.252,1.657c0.14,1.152,0.112,2.323-0.024,3.235c-0.116,0.904-0.369,1.533-0.369,1.533
			s-0.413-0.536-0.769-1.379c-0.393-0.833-0.682-2-0.826-3.181c-0.048-0.606-0.059-1.216-0.03-1.785
			c0.015-0.575,0.12-1.084,0.24-1.53C178.075,73.478,178.395,72.882,178.395,72.882z"/>
	</g>
	<g>
		<path fill="#1B4688" d="M64.4,87.344c0,0,0.441,0.322,0.849,0.878c0.104,0.138,0.217,0.289,0.316,0.453
			c0.107,0.156,0.176,0.368,0.255,0.569c0.15,0.413,0.273,0.871,0.356,1.334c0.032,0.457,0.028,0.918-0.015,1.347
			c-0.027,0.215-0.039,0.421-0.105,0.615c-0.056,0.194-0.128,0.376-0.196,0.542c-0.259,0.667-0.609,1.067-0.609,1.067
			s-0.322-0.462-0.539-1.09c-0.058-0.157-0.118-0.326-0.162-0.502c-0.036-0.177-0.117-0.36-0.161-0.549
			c-0.102-0.378-0.167-0.778-0.197-1.182c-0.068-0.387-0.099-0.778-0.09-1.162c-0.004-0.194,0.035-0.377,0.022-0.573
			c-0.003-0.192,0.012-0.379,0.026-0.552C64.199,87.851,64.4,87.344,64.4,87.344z"/>
	</g>
	<g>
		<path fill="#1B4688" d="M71.205,114.566c0,0,0.532,0.076,1.138,0.372c0.304,0.182,0.647,0.448,0.966,0.773
			c0.271,0.338,0.582,0.698,0.765,1.134c0.093,0.215,0.189,0.43,0.263,0.648c0.062,0.228,0.103,0.457,0.138,0.678
			c0.043,0.215,0.039,0.445,0.027,0.659c-0.016,0.216-0.023,0.402-0.084,0.598c-0.047,0.19-0.114,0.357-0.176,0.497
			c-0.041,0.139-0.163,0.267-0.23,0.353c-0.155,0.178-0.254,0.243-0.254,0.243s-0.049-0.118-0.136-0.324
			c-0.044-0.095-0.07-0.182-0.145-0.303c-0.069-0.116-0.146-0.238-0.204-0.363c-0.058-0.122-0.177-0.267-0.249-0.406
			c-0.078-0.143-0.149-0.289-0.249-0.443c-0.089-0.154-0.176-0.312-0.244-0.478c-0.098-0.159-0.178-0.327-0.26-0.495
			c-0.135-0.348-0.333-0.67-0.439-1.025c-0.138-0.317-0.246-0.634-0.319-0.959C71.251,115.103,71.205,114.566,71.205,114.566z"/>
	</g>
	<g>
		<path fill="#1B4688" d="M100.98,65.226c-0.004,0.007,0.127,0.082,0.303,0.308c0.166,0.212,0.372,0.535,0.545,0.932
			c0.378,0.792,0.634,1.877,0.715,2.965c0.077,1.089-0.02,2.182-0.238,3.003c-0.043,0.205-0.103,0.394-0.156,0.559
			c-0.028,0.083-0.045,0.157-0.075,0.227l-0.019,0.04c-0.007-0.008,0.001,0.046-0.017-0.013c-0.013-0.044-0.073-0.121-0.153-0.141
			c-0.078-0.023-0.132,0.007-0.155,0.01c-0.064,0.011-0.139,0.094-0.142,0.153c-0.004,0.042,0.006,0.001,0.008,0.006l0.024-0.035
			c0.134-0.228,0.21-0.357,0.21-0.357s0.085,0.13,0.186,0.385l0.017,0.056c0,0.02,0.01-0.004,0.003,0.053
			c-0.007,0.074-0.086,0.173-0.155,0.2c-0.026,0.015-0.083,0.023-0.163-0.003c-0.083-0.028-0.146-0.113-0.162-0.165
			c-0.023-0.075-0.016-0.038-0.025-0.062l-0.033-0.064c-0.043-0.072-0.074-0.152-0.113-0.232c-0.077-0.164-0.161-0.346-0.228-0.545
			c-0.315-0.797-0.531-1.862-0.609-2.929c-0.073-1.068-0.008-2.137,0.146-2.951c0.062-0.406,0.147-0.749,0.202-0.996
			C100.959,65.394,100.98,65.226,100.98,65.226z"/>
	</g>
	<g>
		<path fill="#1B4688" d="M158.828,88.195c0,0,0.033,0.167,0.062,0.448c0.041,0.275,0.015,0.689,0.058,1.122
			c0.033,0.438,0.032,0.913,0.044,1.453c-0.004,0.264-0.007,0.537-0.011,0.814c0.002,0.279-0.024,0.558-0.033,0.842
			c-0.054,1.133-0.192,2.295-0.437,3.186c-0.216,0.89-0.533,1.492-0.533,1.492s-0.355-0.58-0.615-1.463
			c-0.289-0.882-0.468-2.086-0.412-3.317c0.053-0.616,0.116-1.23,0.289-1.8c0.141-0.562,0.369-1.097,0.609-1.521
			c0.205-0.441,0.488-0.708,0.665-0.931C158.703,88.31,158.828,88.195,158.828,88.195z"/>
	</g>
	<g>
		<path fill="#1B4688" d="M127.353,69.479c0,0,0.467,0.287,0.921,0.812c0.115,0.13,0.24,0.271,0.354,0.429
			c0.107,0.164,0.188,0.376,0.272,0.586c0.161,0.426,0.315,0.913,0.388,1.394c0.022,0.47,0.009,0.945-0.045,1.383
			c-0.031,0.219-0.05,0.43-0.132,0.625c-0.068,0.195-0.151,0.376-0.23,0.542c-0.303,0.663-0.677,1.036-0.677,1.036
			s-0.29-0.493-0.468-1.128c-0.048-0.16-0.097-0.331-0.13-0.507c-0.021-0.177-0.097-0.361-0.138-0.549
			c-0.093-0.377-0.147-0.771-0.167-1.17c-0.013-0.194-0.062-0.37-0.072-0.558c-0.021-0.185-0.025-0.371-0.022-0.557
			c-0.005-0.188,0.028-0.37,0.021-0.56c-0.021-0.192-0.021-0.381-0.021-0.556C127.195,70.006,127.353,69.479,127.353,69.479z"/>
	</g>
	<g>
		<path fill="#1B4688" d="M178.395,92.448c0,0,0.477,0.483,0.936,1.278c0.117,0.198,0.244,0.413,0.357,0.645
			c0.108,0.237,0.182,0.519,0.263,0.801c0.153,0.569,0.292,1.2,0.364,1.827c0.02,0.616,0.003,1.234-0.052,1.809
			c-0.034,0.288-0.047,0.565-0.127,0.825c-0.066,0.26-0.147,0.503-0.225,0.727c-0.294,0.895-0.666,1.446-0.666,1.446
			s-0.298-0.63-0.48-1.506c-0.049-0.219-0.1-0.456-0.135-0.703c-0.022-0.248-0.104-0.506-0.141-0.773
			c-0.092-0.533-0.147-1.097-0.167-1.664c-0.062-0.547-0.107-1.087-0.101-1.617c-0.006-0.265,0.026-0.521,0.019-0.779
			c-0.018-0.258-0.016-0.508-0.014-0.738C178.226,93.107,178.395,92.448,178.395,92.448z"/>
	</g>
	<g>
		<path fill="#1B4688" d="M81.414,87.344c0,0,0.507,0.195,1.041,0.624c0.559,0.415,1.136,1.067,1.58,1.801
			c0.425,0.761,0.702,1.621,0.778,2.317c0.101,0.686,0.003,1.213,0.003,1.213s-0.505-0.228-1.017-0.673
			c-0.27-0.216-0.537-0.489-0.788-0.799c-0.254-0.31-0.475-0.659-0.689-1.026c-0.438-0.737-0.743-1.554-0.847-2.243
			C81.348,87.884,81.414,87.344,81.414,87.344z"/>
	</g>
	<g>
		<path fill="#1B4688" d="M104.383,41.406c0,0,0.475,0.44,0.932,1.174c0.493,0.72,0.924,1.765,1.217,2.847
			c0.145,0.535,0.263,1.06,0.333,1.575c0.063,0.52,0.105,1,0.13,1.416c0.055,0.834-0.06,1.495-0.06,1.495s-0.5-0.381-1.022-1.11
			c-0.132-0.181-0.28-0.379-0.407-0.597c-0.116-0.217-0.232-0.449-0.34-0.693c-0.215-0.486-0.414-1.026-0.564-1.562
			c-0.282-1.064-0.399-2.172-0.385-3.049C104.215,42.034,104.383,41.406,104.383,41.406z"/>
	</g>
	<g>
		<path fill="#1B4688" d="M150.321,38.003c0,0,0.184,0.702,0.2,1.696c0.007,0.25,0.015,0.52,0.001,0.8
			c-0.008,0.281,0.021,0.563,0.015,0.856c0.002,0.584-0.045,1.189-0.113,1.796c-0.025,0.621-0.086,1.238-0.183,1.821
			c-0.039,0.292-0.125,0.575-0.149,0.844c-0.035,0.269-0.087,0.525-0.136,0.764c-0.187,0.952-0.485,1.632-0.485,1.632
			s-0.37-0.605-0.662-1.582c-0.076-0.243-0.157-0.509-0.223-0.792c-0.078-0.284-0.087-0.583-0.119-0.895
			c-0.049-0.623-0.06-1.292-0.035-1.958c0.079-0.672,0.213-1.342,0.367-1.955c0.138-0.626,0.366-1.148,0.608-1.586
			C149.853,38.556,150.321,38.003,150.321,38.003z"/>
	</g>
	<g>
		<path fill="#1B4688" d="M173.29,49.913c0,0,0.278,0.65,0.463,1.572c0.216,0.927,0.34,2.13,0.456,3.261
			c0.112,1.142,0.248,2.15,0.572,2.764c0.095,0.14,0.189,0.293,0.309,0.404c0.126,0.086,0.235,0.234,0.356,0.28
			c0.232,0.13,0.396,0.226,0.396,0.226s-0.145,0.075-0.451,0.168c-0.154,0.059-0.347,0.042-0.584,0.038
			c-0.23-0.014-0.504-0.1-0.769-0.24c-0.128-0.083-0.261-0.17-0.398-0.26c-0.123-0.102-0.228-0.226-0.348-0.35
			c-0.219-0.253-0.409-0.55-0.55-0.858c-0.308-0.625-0.443-1.3-0.523-1.965c-0.127-1.331,0.077-2.607,0.393-3.529
			C172.903,50.495,173.29,49.913,173.29,49.913z"/>
	</g>
	<g>
		<path fill="#1B4688" d="M72.057,40.556c0,0,0.502,0.407,1.008,1.108c0.263,0.349,0.542,0.753,0.749,1.258
			c0.218,0.494,0.414,1.038,0.574,1.593c0.154,0.555,0.247,1.089,0.312,1.615c0.06,0.524,0.08,1.02,0.07,1.442
			c0.001,0.847-0.161,1.491-0.161,1.491s-0.475-0.422-0.943-1.174c-0.255-0.374-0.479-0.819-0.681-1.303
			c-0.204-0.48-0.376-1.025-0.525-1.539c-0.143-0.514-0.251-1.038-0.318-1.546c-0.049-0.506-0.138-1.004-0.15-1.441
			C71.932,41.194,72.057,40.556,72.057,40.556z"/>
	</g>
	<g>
		<path fill="#1B4688" d="M117.994,31.197c0,0,0.334,0.532,0.571,1.329c0.266,0.798,0.425,1.861,0.429,2.924
			c-0.002,1.063-0.159,2.126-0.426,2.924c-0.238,0.797-0.574,1.329-0.574,1.329s-0.336-0.532-0.574-1.329
			c-0.267-0.798-0.424-1.861-0.426-2.924c0.004-1.063,0.163-2.126,0.429-2.924C117.66,31.729,117.994,31.197,117.994,31.197z"/>
	</g>
	<g>
		<path fill="#1B4688" d="M139.262,20.989c0,0,0.464,0.292,0.912,0.82c0.114,0.131,0.237,0.274,0.349,0.432
			c0.106,0.165,0.186,0.376,0.27,0.585c0.159,0.424,0.312,0.907,0.383,1.385c0.024,0.469,0.012,0.941-0.041,1.378
			c-0.029,0.438-0.195,0.835-0.354,1.165c-0.297,0.664-0.668,1.041-0.668,1.041s-0.295-0.489-0.478-1.124
			c-0.049-0.16-0.1-0.33-0.134-0.506c-0.022-0.177-0.1-0.361-0.141-0.549c-0.094-0.377-0.15-0.772-0.171-1.171
			c-0.014-0.195-0.062-0.372-0.072-0.561c-0.02-0.186-0.025-0.373-0.021-0.56c-0.005-0.188,0.027-0.37,0.021-0.561
			c-0.018-0.192-0.017-0.381-0.015-0.556C139.099,21.513,139.262,20.989,139.262,20.989z"/>
	</g>
	<g>
		<path fill="#1B4688" d="M99.279,26.944c0,0,0.129,0.094,0.327,0.271c0.188,0.164,0.455,0.492,0.671,0.88
			c0.474,0.778,0.8,1.938,0.82,3.102c0.019,1.164-0.236,2.339-0.717,3.147c-0.102,0.204-0.233,0.382-0.358,0.531
			c-0.105,0.152-0.258,0.27-0.358,0.358c-0.097,0.094-0.226,0.136-0.284,0.17c-0.065,0.03-0.1,0.046-0.1,0.046
			s0.031-0.167,0.036-0.407c0.001-0.251-0.018-0.576-0.05-0.974c-0.074-0.786-0.149-1.809-0.167-2.833
			c-0.012-1.026,0.003-2.048,0.071-2.86c0.02-0.409,0.065-0.731,0.072-1.01C99.254,27.103,99.279,26.944,99.279,26.944z"/>
	</g>
	<g>
		<path fill="#1B4688" d="M160.529,32.898c0,0,0.279,0.565,0.436,1.386c0.185,0.824,0.237,1.903,0.134,2.967
			c-0.107,1.063-0.37,2.111-0.716,2.882c-0.316,0.774-0.704,1.272-0.704,1.272s-0.281-0.565-0.438-1.387
			c-0.186-0.824-0.236-1.903-0.131-2.967c0.109-1.063,0.374-2.111,0.719-2.882C160.144,33.397,160.529,32.898,160.529,32.898z"/>
	</g>
	<g>
		<path fill="#1B4688" d="M57.594,37.152c0,0,0.334,0.479,0.572,1.196c0.266,0.718,0.424,1.675,0.428,2.632
			c-0.001,0.957-0.158,1.914-0.425,2.632c-0.238,0.718-0.575,1.196-0.574,1.196s-0.336-0.479-0.574-1.196
			c-0.267-0.718-0.424-1.675-0.425-2.632c0.003-0.957,0.162-1.914,0.428-2.632C57.259,37.631,57.594,37.152,57.594,37.152z"/>
	</g>
	<g>
		<path fill="#1B4688" d="M51.64,60.973c0,0,0.421,0.292,0.798,0.794c0.404,0.496,0.753,1.206,0.952,1.954
			c0.096,0.375,0.184,0.728,0.215,1.088c0.035,0.356,0.034,0.702-0.008,1.016c-0.056,0.616-0.255,1.102-0.255,1.102
			s-0.432-0.253-0.836-0.745c-0.427-0.479-0.833-1.207-1.052-1.964c-0.192-0.75-0.233-1.539-0.123-2.167
			C51.413,61.43,51.64,60.973,51.64,60.973z"/>
	</g>
	<g>
		<path fill="#1B4688" d="M80.563,18.437c0,0,0.472,0.422,0.927,1.131c0.116,0.176,0.242,0.368,0.354,0.576
			c0.104,0.216,0.183,0.471,0.265,0.729c0.156,0.52,0.303,1.098,0.373,1.672c0.022,0.567,0.009,1.137-0.043,1.666
			c-0.031,0.265-0.047,0.519-0.128,0.758c-0.067,0.239-0.149,0.462-0.227,0.666c-0.298,0.819-0.671,1.31-0.671,1.31
			s-0.295-0.584-0.476-1.379c-0.048-0.199-0.099-0.413-0.132-0.636c-0.021-0.223-0.101-0.457-0.141-0.697
			c-0.094-0.481-0.152-0.989-0.174-1.499c-0.014-0.252-0.065-0.489-0.076-0.734c-0.021-0.243-0.029-0.485-0.027-0.724
			c0.006-0.245,0.013-0.482,0.019-0.707c-0.018-0.236-0.015-0.465-0.013-0.677C80.395,19.049,80.563,18.437,80.563,18.437z"/>
	</g>
	<g>
		<path fill="#1B4688" d="M106.936,11.631c0,0,0.334,0.479,0.572,1.196c0.266,0.718,0.424,1.675,0.428,2.632
			c-0.001,0.957-0.158,1.914-0.425,2.632c-0.238,0.718-0.575,1.196-0.574,1.196s-0.336-0.479-0.574-1.196
			c-0.267-0.718-0.424-1.675-0.425-2.632c0.003-0.957,0.162-1.914,0.428-2.632C106.601,12.109,106.936,11.631,106.936,11.631z"/>
	</g>
	<g>
		<path fill="#1B4688" d="M129.904,15.885c0,0,0.123,0.083,0.309,0.239c0.18,0.167,0.442,0.361,0.647,0.738
			c0.11,0.179,0.236,0.383,0.338,0.606c0.083,0.216,0.165,0.448,0.235,0.694c0.083,0.246,0.117,0.502,0.146,0.765
			c0.027,0.262,0.062,0.533,0.045,0.799c-0.019,0.534-0.092,1.064-0.247,1.54c-0.123,0.482-0.356,0.9-0.562,1.244
			c-0.199,0.347-0.455,0.599-0.62,0.773c-0.174,0.172-0.29,0.259-0.29,0.259s-0.042-0.146-0.088-0.384
			c-0.049-0.239-0.078-0.559-0.115-0.929c-0.062-0.376-0.046-0.784-0.079-1.219c0-0.432-0.01-0.879,0.003-1.326
			c0.028-0.224,0-0.443,0.02-0.663c0.007-0.219,0.036-0.438,0.033-0.646c0.006-0.209,0.024-0.417,0.048-0.618
			c0.008-0.187,0.026-0.367,0.047-0.544c0.01-0.174,0.054-0.347,0.046-0.513c-0.001-0.16,0.017-0.308,0.027-0.427
			C129.872,16.03,129.904,15.885,129.904,15.885z"/>
	</g>
	<g>
		<path fill="#1B4688" d="M142.665,51.614c0.002,0-0.009,0.012-0.002,0.035c0.013,0.018,0.025,0.022,0.034,0.062
			c0.02,0.062,0.064,0.157,0.092,0.271c0.068,0.231,0.151,0.56,0.195,0.944c0.119,0.773,0.083,1.771-0.118,2.739
			c-0.204,0.966-0.574,1.903-1.016,2.564c-0.41,0.672-0.888,1.041-0.888,1.041s-0.167-0.563-0.227-1.32
			c-0.082-0.766-0.025-1.744,0.174-2.697c0.204-0.952,0.551-1.878,0.953-2.548c0.187-0.337,0.387-0.611,0.538-0.8
			c0.069-0.096,0.147-0.167,0.19-0.217c0.021-0.017,0.043-0.055,0.062-0.066C142.666,51.616,142.664,51.615,142.665,51.614z"/>
	</g>
	<g>
		<path fill="#1B4688" d="M141.814,106.91c0,0,0.425,0.399,0.805,1.056c0.195,0.332,0.414,0.698,0.531,1.164
			c0.133,0.455,0.234,0.954,0.3,1.458c0.137,1.014,0.002,1.999-0.198,2.748c-0.113,0.403-0.272,0.727-0.386,0.927
			c-0.117,0.204-0.201,0.304-0.201,0.304s-0.324-0.562-0.561-1.183c-0.331-0.693-0.512-1.643-0.638-2.542
			c-0.053-0.455-0.069-0.914-0.049-1.357c0.04-0.438,0.021-0.888,0.086-1.268C141.587,107.456,141.814,106.91,141.814,106.91z"/>
	</g>
	<g>
		<path fill="#1B4688" d="M162.231,118.82c0,0,0.334,0.683,0.571,1.706c0.266,1.023,0.425,2.388,0.429,3.753
			c-0.001,1.364-0.159,2.729-0.426,3.753c-0.117,0.512-0.264,0.938-0.375,1.236c-0.014,0.037-0.027-0.118-0.039-0.085L162.39,129
			c-0.001,0-0.001,0-0.002,0c0.068,0-0.388,0-0.388,0v0.379l0.043-0.012l0.029-0.023l0.03-0.046
			c0.025-0.058,0.052-0.106,0.069-0.146c0.036-0.08,0.058-0.123,0.058-0.123s0.02,0.043,0.056,0.123
			c0.018,0.04,0.039,0.089,0.064,0.146l0.021,0.046l-0.183,0.023L162,129.379V129c1,0,0.007,0,0.075,0c-0.001,0-0.001,0-0.002,0
			l-0.002,0.184c-0.012-0.033-0.025,0.027-0.039-0.01c-0.111-0.299-0.258-0.678-0.375-1.189c-0.267-1.024-0.425-2.364-0.426-3.729
			c0.004-1.365,0.163-2.718,0.429-3.741C161.897,119.491,162.231,118.82,162.231,118.82z"/>
	</g>
	<g>
		<path fill="#1B4688" d="M120.547,50.764c0,0,0.121-0.035,0.319-0.067c0.097-0.013,0.218-0.035,0.347-0.038
			c0.129-0.015,0.274-0.023,0.454,0.056c0.178,0.058,0.382,0.134,0.587,0.245c0.188,0.117,0.345,0.273,0.517,0.444
			c0.187,0.165,0.294,0.377,0.405,0.598c0.121,0.22,0.209,0.454,0.244,0.685c0.032,0.231,0.094,0.473,0.076,0.693
			c-0.009,0.219-0.038,0.436-0.072,0.64c-0.023,0.209-0.113,0.384-0.178,0.558c-0.07,0.171-0.154,0.328-0.234,0.468
			c-0.356,0.545-0.764,0.822-0.764,0.822s-0.244-0.456-0.369-1.011c-0.047-0.139-0.098-0.286-0.131-0.435
			c-0.04-0.146-0.047-0.307-0.098-0.451c-0.039-0.147-0.074-0.295-0.089-0.444c-0.022-0.149-0.073-0.272-0.095-0.411
			c-0.005-0.147-0.054-0.262-0.085-0.38c-0.032-0.119-0.034-0.259-0.089-0.359c-0.043-0.106-0.063-0.246-0.101-0.357
			c-0.045-0.092-0.077-0.208-0.118-0.328c-0.027-0.117-0.109-0.244-0.192-0.347c-0.078-0.101-0.138-0.208-0.188-0.292
			C120.596,50.879,120.547,50.764,120.547,50.764z"/>
	</g>
	<g>
		<path fill="#1B4688" d="M169.037,75.435c0,0,0.122,0.121,0.304,0.341c0.175,0.227,0.435,0.527,0.648,0.952
			c0.219,0.423,0.475,0.949,0.612,1.523c0.173,0.571,0.262,1.205,0.293,1.845c0.026,0.317-0.01,0.645-0.034,0.96
			c-0.023,0.317-0.058,0.626-0.146,0.925c-0.075,0.298-0.16,0.582-0.248,0.845c-0.111,0.262-0.244,0.501-0.363,0.716
			c-0.209,0.439-0.531,0.743-0.728,0.948c-0.208,0.203-0.339,0.302-0.339,0.302s-0.018-0.178-0.026-0.46
			c-0.002-0.14-0.01-0.308,0.001-0.487c0.017-0.177-0.016-0.392-0.015-0.608c-0.011-0.22-0.015-0.451-0.01-0.689
			c-0.02-0.247-0.034-0.5-0.036-0.759c0.012-0.256-0.022-0.527-0.029-0.799c-0.022-0.273,0.01-0.545-0.026-0.825
			c-0.012-0.279-0.025-0.557-0.019-0.833c-0.009-0.276-0.028-0.55-0.024-0.819c0.016-0.544-0.015-1.03,0.032-1.488
			c0.023-0.452,0.034-0.86,0.076-1.14C168.998,75.602,169.037,75.435,169.037,75.435z"/>
	</g>
	<g>
		<path fill="#1C4076" d="M49.24,124.775c0,0,0.367,0.512,0.654,1.297c0.315,0.783,0.54,1.841,0.61,2.907
			c0.138,1.035,0.129,2.078-0.028,2.899c-0.127,0.814-0.385,1.403-0.385,1.403s-0.405-0.471-0.752-1.245
			c-0.375-0.768-0.687-1.842-0.83-2.928c-0.063-1.067,0.029-2.145,0.244-2.963C48.94,125.331,49.241,124.775,49.24,124.775z"/>
	</g>
	<g>
		<path fill="#1C4076" d="M56.896,159.654c0,0,0.315,0.464,0.532,1.142c0.244,0.678,0.392,1.548,0.448,2.383
			c0.045,0.41,0.033,0.832,0.047,1.216c-0.015,0.396-0.008,0.761-0.044,1.104c-0.034,0.342-0.033,0.63-0.071,0.857
			c-0.031,0.223-0.062,0.365-0.062,0.365s-0.119-0.065-0.302-0.204c-0.17-0.144-0.454-0.35-0.658-0.663
			c-0.232-0.303-0.462-0.689-0.606-1.129c-0.175-0.439-0.244-0.919-0.299-1.401c-0.059-0.962,0.116-1.893,0.403-2.562
			C56.543,160.089,56.896,159.654,56.896,159.654z"/>
	</g>
	<g>
		<path fill="#1C4076" d="M67.955,128.178c0,0-0.079,0.161-0.236,0.418c-0.167,0.27-0.311,0.593-0.487,1.004
			c-0.095,0.192-0.144,0.435-0.232,0.651c-0.061,0.238-0.141,0.47-0.194,0.729c-0.123,0.505-0.226,1.057-0.307,1.633
			c-0.187,1.143-0.332,2.374-0.582,3.32c-0.213,0.947-0.515,1.603-0.515,1.603c0,0-0.371-0.615-0.634-1.575
			c-0.282-0.958-0.462-2.284-0.245-3.658c0.103-0.682,0.317-1.371,0.638-1.973c0.307-0.605,0.738-1.111,1.175-1.441
			c0.413-0.34,0.875-0.547,1.148-0.612C67.777,128.204,67.955,128.178,67.955,128.178z"/>
	</g>
	<g>
		<path fill="#1C4076" d="M50.091,140.938c0,0,0.335,0.427,0.573,1.07c0.062,0.16,0.13,0.334,0.179,0.52
			c0.035,0.193,0.066,0.4,0.083,0.615c0.038,0.43,0.037,0.894-0.001,1.354c-0.073,0.443-0.181,0.881-0.32,1.281
			c-0.068,0.2-0.147,0.391-0.228,0.569c-0.096,0.18-0.208,0.344-0.31,0.491c-0.401,0.6-0.827,0.905-0.827,0.905
			s-0.211-0.528-0.288-1.179c-0.042-0.325-0.072-0.694-0.093-1.098c-0.011-0.396,0.018-0.808,0.082-1.215
			c0.036-0.398,0.11-0.792,0.218-1.166c0.119-0.365,0.241-0.735,0.362-1.066C49.757,141.372,50.091,140.938,50.091,140.938z"/>
	</g>
	<g>
		<path fill="#1C4076" d="M55.195,85.643c0,0,0.367,0.624,0.653,1.574c0.074,0.237,0.154,0.495,0.218,0.768
			c0.078,0.267,0.079,0.583,0.106,0.896c0.04,0.632,0.04,1.316,0.001,1.997c-0.085,0.657-0.217,1.304-0.373,1.904
			c-0.146,0.603-0.359,1.144-0.587,1.597c-0.419,0.913-0.871,1.473-0.87,1.473s-0.207-0.703-0.259-1.683
			c-0.037-0.493-0.034-1.056-0.038-1.651c0.006-0.594,0.061-1.22,0.138-1.838c0.036-0.603,0.111-1.203,0.22-1.773
			c0.043-0.289,0.141-0.554,0.164-0.839c0.036-0.278,0.089-0.543,0.138-0.787C54.895,86.303,55.196,85.643,55.195,85.643z"/>
	</g>
	<g>
		<path fill="#1C4076" d="M39.882,97.553c0,0,0.319,0.596,0.534,1.483c0.12,0.445,0.226,0.955,0.241,1.529
			c0.028,0.569,0.017,1.179-0.03,1.785c-0.145,1.182-0.434,2.348-0.826,3.181c-0.356,0.843-0.77,1.379-0.769,1.379
			s-0.253-0.629-0.369-1.533c-0.136-0.911-0.164-2.082-0.024-3.234c0.049-0.565,0.134-1.127,0.252-1.657
			c0.131-0.522,0.238-1.042,0.383-1.479C39.533,98.132,39.882,97.553,39.882,97.553z"/>
	</g>
	<g>
		<path fill="#1C4076" d="M59.448,112.865c0,0,0.125,0.114,0.314,0.325c0.177,0.223,0.46,0.489,0.666,0.931
			c0.24,0.425,0.469,0.959,0.609,1.521c0.173,0.569,0.237,1.184,0.289,1.8c0.056,1.23-0.123,2.435-0.412,3.316
			c-0.26,0.884-0.615,1.464-0.615,1.464c0,0-0.317-0.602-0.533-1.492c-0.244-0.891-0.383-2.053-0.437-3.186
			c-0.009-0.284-0.035-0.562-0.033-0.842c-0.003-0.277-0.007-0.551-0.01-0.814c0.011-0.541,0.01-1.015,0.043-1.453
			c0.043-0.433,0.016-0.848,0.057-1.122C59.415,113.032,59.448,112.865,59.448,112.865z"/>
	</g>
	<g>
		<path fill="#1C4076" d="M39.882,117.119c0,0,0.169,0.659,0.168,1.578c0.002,0.23,0.004,0.48-0.014,0.738
			c-0.007,0.258,0.024,0.514,0.019,0.778c0.007,0.529-0.04,1.069-0.1,1.617c-0.02,0.566-0.075,1.131-0.167,1.664
			c-0.037,0.267-0.119,0.525-0.142,0.772c-0.034,0.248-0.085,0.483-0.134,0.703c-0.183,0.876-0.481,1.506-0.48,1.506
			s-0.372-0.551-0.667-1.446c-0.077-0.223-0.158-0.467-0.224-0.727c-0.08-0.26-0.093-0.537-0.127-0.824
			c-0.055-0.575-0.071-1.194-0.052-1.81c0.073-0.627,0.211-1.257,0.364-1.827c0.082-0.282,0.155-0.563,0.263-0.801
			c0.114-0.232,0.241-0.446,0.358-0.645C39.406,117.603,39.882,117.119,39.882,117.119z"/>
	</g>
	<g>
		<path fill="#1C4076" d="M44.986,74.584c0,0,0.387,0.582,0.678,1.51c0.315,0.922,0.519,2.198,0.392,3.529
			c-0.08,0.666-0.216,1.341-0.523,1.965c-0.141,0.308-0.332,0.604-0.55,0.858c-0.121,0.124-0.224,0.247-0.348,0.349
			c-0.138,0.09-0.271,0.177-0.398,0.261c-0.264,0.14-0.539,0.226-0.769,0.24c-0.237,0.004-0.43,0.021-0.583-0.038
			c-0.307-0.093-0.452-0.168-0.452-0.168s0.164-0.096,0.396-0.226c0.122-0.046,0.23-0.194,0.357-0.28
			c0.119-0.11,0.213-0.265,0.308-0.404c0.324-0.614,0.46-1.622,0.572-2.764c0.116-1.13,0.24-2.333,0.455-3.26
			C44.708,75.234,44.987,74.584,44.986,74.584z"/>
	</g>
	<g>
		<path fill="#1C4076" d="M56.046,143.49c0,0,0.334,0.683,0.572,1.706c0.266,1.023,0.424,2.389,0.428,3.753
			c-0.001,1.365-0.158,2.729-0.425,3.753c-0.118,0.512-0.263,0.938-0.375,1.237c-0.014,0.037-0.128,0.072-0.14,0.105L56,154.025V154
			l0,0v0.05l-0.049-0.012l-0.017-0.023l0.006-0.046c0.026-0.058,0.041-0.107,0.059-0.146c0.035-0.08,0.051-0.123,0.051-0.123
			s0.017,0.043,0.052,0.123c0.019,0.039,0.039,0.089,0.065,0.146l0.02,0.046l-0.09,0.023L56,154.05V154l0,0v0.025l-0.059,0.006
			c-0.012-0.033-0.053-0.062-0.066-0.099c-0.112-0.299-0.271-0.722-0.389-1.233c-0.267-1.023-0.432-2.387-0.433-3.752
			c0.003-1.364,0.159-2.729,0.424-3.752C55.715,144.172,56.046,143.49,56.046,143.49z"/>
	</g>
	<g>
		<path fill="#1C4076" d="M49.24,100.104c0,0,0.039,0.167,0.076,0.45c0.042,0.28,0.053,0.688,0.075,1.14
			c0.047,0.457,0.017,0.944,0.033,1.488c0.003,0.269-0.016,0.542-0.024,0.819c0.006,0.277-0.007,0.555-0.019,0.833
			c-0.036,0.28-0.003,0.552-0.026,0.825c-0.007,0.272-0.041,0.543-0.03,0.799c-0.001,0.259-0.016,0.513-0.036,0.759
			c0.005,0.238,0,0.47-0.009,0.689c0,0.217-0.031,0.432-0.015,0.608c0.011,0.18,0.003,0.348,0.001,0.487
			c-0.009,0.281-0.026,0.46-0.026,0.46s-0.131-0.099-0.339-0.302c-0.196-0.205-0.519-0.509-0.728-0.948
			c-0.119-0.215-0.252-0.454-0.363-0.716c-0.087-0.264-0.173-0.548-0.248-0.846c-0.087-0.298-0.122-0.607-0.146-0.925
			c-0.024-0.316-0.06-0.643-0.033-0.96c0.031-0.641,0.12-1.275,0.292-1.846c0.138-0.574,0.393-1.1,0.613-1.523
			c0.214-0.425,0.474-0.726,0.648-0.952C49.118,100.225,49.24,100.104,49.24,100.104z"/>
	</g>
	<path fill="#D6E5F5" d="M56.241,31.197c0,0-6.849-4.679-7.001-11.91c-0.153-7.23,5.136-12.76,7.596-16.163
		c2.46-3.402,7.766-2.316,5.818,2.435c-1.947,4.75-2.628,7.349-3.206,9.9c-0.578,2.553,7.195,7.231,7.195,7.231
		s2.01,5.104-2.243,8.507C60.146,34.601,56.241,31.197,56.241,31.197z"/>
	<path fill="#BACDE4" d="M56.241,31.197c0,0-6.849-4.679-7.001-11.91c-0.153-7.23,5.136-12.76,7.596-16.163
		c2.46-3.402,4.832-2.198,2.885,2.553c-1.947,4.75-4.525,8.697-5.104,11.249s3.828,8.316,9.783,14.271
		C60.146,34.601,56.241,31.197,56.241,31.197z"/>
	<path fill="#D6E5F5" d="M167.303,30.347c0,0,6.848-4.679,7.001-11.91c0.153-7.23-5.136-12.76-7.596-16.163
		c-2.46-3.402-7.766-2.316-5.818,2.435c1.947,4.75,2.628,7.349,3.206,9.9c0.578,2.553-7.195,7.231-7.195,7.231
		s-2.01,5.104,2.243,8.507C163.397,33.75,167.303,30.347,167.303,30.347z"/>
	<path fill="#FFFFFF" d="M167.303,30.347c0,0,6.848-4.679,7.001-11.91c0.153-7.23-5.136-12.76-7.596-16.163
		c-2.46-3.402-4.833-2.198-2.886,2.552c1.948,4.751,4.526,8.697,5.104,11.25c0.578,2.552-3.828,8.316-9.783,14.271
		C163.397,33.75,167.303,30.347,167.303,30.347z"/>
	<path fill="#1C4076" d="M63.449,161.271c0,0-12.746,14.472-12.642,16.211s10.013,10.449,12.697,13.436
		c2.678,2.977,3.989,0,1.013-2.25c-2.45-1.853-10.504-11.186-10.504-11.186l10.575-10.98L63.449,161.271z"/>
	<path fill="#1C4076" d="M64.28,141.84l-1.415,6.755l-3.502,10.85c0,0,18.107,5.506,19.927,6.162
		c1.818,0.656,1.66,3.893-0.326,3.298c-1.986-0.596-24.135-7.235-24.135-7.235s5.32-15.341,6.312-17.753S64.28,141.84,64.28,141.84z
		"/>
	<path fill="#1C4076" d="M163.232,143.329l14.306,16.432c0,0,0.431,0.534-1.058,1.279c-4.475,2.239-18.874,7.446-20.204,7.831
		c-1.596,0.46-2.833-1.988,0.145-3.265c1.731-0.635,16.763-6.591,16.763-6.591l-9.052-9.161L163.232,143.329z"/>
	<path fill="#1C4076" d="M162.467,167.227c0,0,12.747,14.471,12.642,16.211c-0.104,1.739-10.012,10.449-12.697,13.435
		c-2.678,2.978-3.989,0-1.013-2.249c2.451-1.853,10.504-11.186,10.504-11.186l-10.574-10.98L162.467,167.227z"/>
</g>
</svg>
