<?xml version="1.0" encoding="utf-8"?>
<!-- Generator: Adobe Illustrator 16.0.0, SVG Export Plug-In . SVG Version: 6.00 Build 0)  -->
<!DOCTYPE svg PUBLIC "-//W3C//DTD SVG 1.1//EN" "http://www.w3.org/Graphics/SVG/1.1/DTD/svg11.dtd">
<svg version="1.1" id="Layer_1" xmlns="http://www.w3.org/2000/svg" xmlns:xlink="http://www.w3.org/1999/xlink" x="0px" y="0px"
	 width="247px" height="397px" viewBox="0 0 247 397" enable-background="new 0 0 247 397" xml:space="preserve">
<g>
	<g>
		<g>
			<path fill="#882167" d="M129.583,328.902c1.42-0.919,2.586-4.98-2.452-9.522s-9.025-1.259-9.025-1.259s-4.546,2.705-10.697,6.363
				c-1.52,0.903-6.587-1.235-9.281-1.306c-1.728-0.045,1.461,5.954-0.078,6.87c-0.488,0.289-0.979,0.581-1.469,0.872
				c-0.517,0.307-4.766-1.727-5.281-1.42c-1.027,0.61,1.684,3.557,0.674,4.156c-9.012,5.351-16.969,10.066-17.313,10.236
				c-0.81,0.4-1.056,1.457-0.606,2.624c2.421,6.296,10.354,26.856,12.755,32.297c2.848,6.448,5.627,3.209,4.745,0
				c-0.74-2.69-6.865-22.205-8.58-28.438c-0.33-1.201,0.993-1.909,0.993-1.909S128.163,329.821,129.583,328.902z"/>
			<path fill="#C11C78" d="M129.583,328.902c1.42-0.919,2.822-2.688,0.341-6.088c-12.324,6.434-50.648,24.605-50.2,25.772
				c2.421,6.296,8.035,22.612,10.058,28.204c1.678,4.641,2.005,2.99,1.771,2.023c-0.658-2.713-6.865-22.205-8.58-28.438
				c-0.33-1.201,0.993-1.909,0.993-1.909S128.163,329.821,129.583,328.902z"/>
			<path fill="#711C59" d="M123.977,317.396c-2.457-0.982-5.871,0.725-5.871,0.725s-4.546,2.705-10.697,6.363
				c-1.52,0.903-6.587-1.235-9.281-1.306c-1.728-0.045,6.345,3.078,8.135,3.088C109.003,326.281,115.64,322.294,123.977,317.396z"/>
			<path fill="#711C59" d="M91.973,333.657c-9.012,5.351-16.969,10.066-17.313,10.236c-0.81,0.4-1.056,1.457-0.606,2.624
				C74.659,343.894,92.982,333.058,91.973,333.657z"/>
			<path fill="#711C59" d="M96.58,330.921c-0.543-0.022-3.984-1.136-5.281-1.42C90.604,330.544,96.58,330.921,96.58,330.921z"/>
			<path fill="#882167" d="M100.592,322.452c1.555-1.006,2.832-5.455-2.686-10.429c-5.519-4.975-9.886-1.38-9.886-1.38
				s-4.979,2.964-11.718,6.97c-1.663,0.989-7.213-1.353-10.164-1.43c-1.893-0.05,1.6,6.521-0.086,7.523
				c-0.535,0.318-1.072,0.638-1.609,0.956c-0.564,0.336-5.22-1.89-5.784-1.556c-1.125,0.668,1.844,3.896,0.737,4.553
				c-9.869,5.861-18.584,11.025-18.962,11.212c-0.887,0.439-1.156,1.597-0.665,2.874c2.652,6.896,11.34,29.415,13.971,35.374
				c3.119,7.062,6.163,3.516,5.197,0c-0.812-2.947-7.52-24.321-9.397-31.147c-0.361-1.315,1.087-2.092,1.087-2.092
				S99.036,323.459,100.592,322.452z"/>
			<path fill="#C11C78" d="M100.592,322.452c1.555-1.006,3.091-2.945,0.373-6.668c-13.498,7.048-55.476,26.95-54.984,28.228
				c2.652,6.896,8.802,24.768,11.018,30.894c1.837,5.081,2.195,3.274,1.939,2.215c-0.721-2.97-7.52-24.321-9.397-31.147
				c-0.361-1.315,1.087-2.092,1.087-2.092S99.036,323.459,100.592,322.452z"/>
			<path fill="#711C59" d="M94.451,309.85c-2.691-1.076-6.431,0.794-6.431,0.794s-4.979,2.964-11.718,6.97
				c-1.663,0.989-7.213-1.353-10.164-1.43c-1.893-0.05,6.948,3.372,8.909,3.382C78.051,319.581,85.319,315.214,94.451,309.85z"/>
			<path fill="#711C59" d="M59.396,327.66c-9.869,5.861-18.584,11.025-18.962,11.212c-0.887,0.439-1.156,1.597-0.665,2.874
				C40.435,338.872,60.503,327.004,59.396,327.66z"/>
			<path fill="#711C59" d="M64.443,324.663c-0.595-0.025-4.363-1.243-5.784-1.556C57.898,324.25,64.443,324.663,64.443,324.663z"/>
			<path fill="#882167" d="M159.391,329.022c1.236-0.801,2.252-4.335-2.134-8.289s-7.856-1.097-7.856-1.097
				s-3.957,2.355-9.312,5.539c-1.322,0.786-5.732-1.074-8.078-1.137c-1.504-0.039,1.271,5.184-0.068,5.98
				c-0.426,0.253-0.853,0.507-1.278,0.76c-0.449,0.267-4.148-1.504-4.598-1.237c-0.894,0.531,1.466,3.097,0.586,3.62
				c-7.844,4.656-14.77,8.762-15.07,8.909c-0.704,0.349-0.918,1.269-0.527,2.284c2.107,5.48,9.012,23.377,11.104,28.112
				c2.479,5.614,4.897,2.794,4.129,0c-0.644-2.343-5.975-19.328-7.468-24.754c-0.287-1.046,0.864-1.662,0.864-1.662
				S158.155,329.822,159.391,329.022z"/>
			<path fill="#C11C78" d="M159.391,329.022c1.236-0.801,2.457-2.341,0.297-5.3c-10.728,5.601-44.088,21.418-43.696,22.434
				c2.106,5.48,6.994,19.683,8.755,24.551c1.46,4.039,1.745,2.602,1.541,1.761c-0.572-2.361-5.975-19.328-7.468-24.754
				c-0.287-1.046,0.864-1.662,0.864-1.662S158.155,329.822,159.391,329.022z"/>
			<path fill="#711C59" d="M154.511,319.007c-2.139-0.855-5.11,0.63-5.11,0.63s-3.957,2.355-9.312,5.539
				c-1.322,0.786-5.732-1.074-8.078-1.137c-1.504-0.039,5.522,2.681,7.08,2.688C141.477,326.739,147.255,323.27,154.511,319.007z"/>
			<path fill="#711C59" d="M126.652,333.162c-7.844,4.656-14.77,8.762-15.07,8.909c-0.704,0.349-0.918,1.269-0.527,2.284
				C111.582,342.071,127.532,332.639,126.652,333.162z"/>
			<path fill="#711C59" d="M130.664,330.779c-0.474-0.02-3.469-0.988-4.598-1.237C125.462,330.45,130.664,330.779,130.664,330.779z"
				/>
		</g>
		<path fill="#C11C78" d="M142.152,282.231c0,0,40.34,9.994,43.922-20.495c2.262-19.234,3.498-64.942,3.498-64.942
			s2.825-24.662,26.545-23.541c23.721,1.121,24.035,22.42,24.035,22.42l-2.512,76.604c-19.797,10.24-12.933,22.201-55.148,19.948
			C158.678,290.954,142.152,282.231,142.152,282.231z"/>
		<path fill="#A52275" d="M144.867,282.779c0,0,34.734,8.092,40.502-17.156c3.99-25.883,4.117-56.004,4.767-71.713
			c-1.188-13.562,19.26-20.694,19.26-20.694s-8.425,11.091-8.609,22.951c-0.185,11.861,0.808,33.899-5.111,74.794
			C183.836,297.864,144.867,282.779,144.867,282.779z"/>
		<path fill="#DC79B0" d="M218.747,175.72c0,0,21.311,2.679,18.894,27.437S242.627,185.943,218.747,175.72z"/>
		<path fill="#C11C78" d="M30.449,47.768c0,0,1.529-49.322,36.025-47.16C100.97,2.771,102.5,47.61,102.5,47.61s0,55.334,0,63.81
			c0,8.475-6.145,0-6.549,11.703c-0.354,10.287,6.412,6.402,6.412,12.914c0,6.511,4.6,44.578,4.6,51.529
			c0,6.952-5.291,0.2-5.038,11.022c0.254,10.821,7.833,4.152,7.833,11.103s13.543,67.188,40.447,75.499
			c43.325,13.385,79.59-11.864,87.438-12.913c0,24.734-49.325,66.44-96.407,65.246c-42.612-1.082-58.292-18.237-72.866-35.249
			c-14.572-17.012-30.69-81.135-30.69-86.356c0-5.223,5.256-2.04,4.104-10.469s-8.071-4.718-8.071-11.226s-3.229-52.94-3.229-57.784
			c0-4.842,7.351-1.794,7.668-11.299c0.317-9.506-7.742-2.964-7.737-12.377C30.419,103.35,30.449,47.768,30.449,47.768z"/>
		<path fill="#010101" d="M52.727,31.98c0,2.45-1.987,4.437-4.438,4.437c-2.451,0-4.438-1.986-4.438-4.437
			c0-2.451,1.986-4.438,4.438-4.438C50.576,29.965,50.576,29.965,52.727,31.98z"/>
		<path fill="#010101" d="M85.818,31.98c0,2.45-1.986,4.437-4.438,4.437c-2.45,0-4.437-1.986-4.437-4.437
			c1.723-1.98,1.723-1.98,4.437-4.438C83.832,27.543,85.818,29.529,85.818,31.98z"/>
		<circle fill="#FFFFFF" cx="49.575" cy="32.039" r="1.075"/>
		<circle fill="#FFFFFF" cx="79.667" cy="32.039" r="1.075"/>
		<path fill="#A52275" d="M30.449,47.768c0,0,28.546,171.806,41.736,202.527c10.882,25.344,34.346,56.859,61.842,62.932
			c50.746,11.207,87.744,6.372,103.613-40.949c-2.417,43.37-49.324,66.44-96.406,65.246c-42.612-1.082-58.292-18.237-72.865-35.249
			s-30.691-81.135-30.691-86.356c0-5.223,5.257-2.04,4.105-10.469s-8.071-4.718-8.071-11.226s-3.229-52.94-3.229-57.784
			c0-4.842,7.351-1.794,7.668-11.299c0.317-9.506-7.742-2.964-7.737-12.377C30.419,103.35,30.449,47.768,30.449,47.768z"/>
		<polygon fill="#DC79B0" points="93.708,129.983 99.896,136.037 103.932,184.868 98.479,138.593 		"/>
		<path fill="#DC79B0" d="M66.003,3.131c15.378-3.498,30.841,17.343,32.636,33.577c2.67,24.152,1.726,24.152,1.726,24.152
			S99.694,6.896,66.003,3.131z"/>
		<path fill="#DC79B0" d="M103.932,207.467l2.69,3.229c0,0,4.305,39.818,27.405,67.798
			C110.927,257.508,103.932,207.467,103.932,207.467z"/>
		<path opacity="0.5" fill="#A52275" d="M36.122,119.425c0.921,0.198,17.163,1.882,33.879,1.647
			c12.166-0.171,26.667-2.854,26.667-2.854s-0.637,1.496-0.808,5.912s0.808,4.238,0.808,4.238s-8.102,1.613-26.65,3.229
			c-18.549,1.613-33.049-1.614-33.049-1.614s1.207-2.39,1.195-5.231C38.151,121.912,36.122,119.425,36.122,119.425z"/>
		<path opacity="0.5" fill="#A52275" d="M39.351,200.381c0-1.371,17.02,2.957,33.642,1.167c17.487-1.884,29.596-8.26,29.596-8.26
			s-0.401,2.472-0.572,6.888c-0.17,4.417,1.916,4.451,1.916,4.451s-12.137,7.683-30.686,9.297s-33.049-1.614-33.049-1.614
			s1.599-4.02,1.586-6.86S39.351,200.381,39.351,200.381z"/>
		<g>
			<path fill="none" stroke="#982376" stroke-width="3" stroke-linecap="round" stroke-linejoin="round" stroke-miterlimit="10" d="
				M43.852,150.162c13.267,7.264,35.598,2.781,44.388-1.615"/>
			<path opacity="0.5" fill="none" stroke="#DC79B0" stroke-linecap="round" stroke-linejoin="round" stroke-miterlimit="10" d="
				M43.852,151.775c7.799,5.951,33.093,4.986,44.388-1.614"/>
		</g>
		<g>
			<path fill="none" stroke="#982376" stroke-width="3" stroke-linecap="round" stroke-linejoin="round" stroke-miterlimit="10" d="
				M44.663,163.839c13.252,7.29,35.592,2.852,44.391-1.527"/>
			<path opacity="0.5" fill="none" stroke="#DC79B0" stroke-linecap="round" stroke-linejoin="round" stroke-miterlimit="10" d="
				M44.66,165.453c7.786,5.966,33.082,5.051,44.391-1.527"/>
		</g>
		<g>
			<path fill="none" stroke="#982376" stroke-width="3" stroke-linecap="round" stroke-linejoin="round" stroke-miterlimit="10" d="
				M46.277,177.56c13.252,7.29,35.592,2.853,44.391-1.526"/>
			<path opacity="0.5" fill="none" stroke="#DC79B0" stroke-linecap="round" stroke-linejoin="round" stroke-miterlimit="10" d="
				M46.274,179.174c7.786,5.966,33.082,5.052,44.391-1.527"/>
		</g>
		<g>
			<ellipse fill="#010101" cx="66.402" cy="77.278" rx="25.547" ry="37.737"/>
			<path fill="#FFFFFF" d="M53.171,44.991c0,0-1.271,0.841-3.354,3.591c-2.081,2.749-3.575,5.561-3.575,5.561
				s8.031-1.151,10.195-1.581c2.162-0.43,2.081-1.052,1.298-2.006C56.952,49.601,53.171,44.991,53.171,44.991z"/>
			<path fill="#FFFFFF" d="M45.475,56.429l9.663,5.873c0,0,3.481,1.473,0,2.148c-3.479,0.675-13.327,2.585-13.327,2.585
				s0.76-3.646,1.664-6.417S45.475,56.429,45.475,56.429z"/>
			<path fill="#FFFFFF" d="M41.26,70.546l15.178,5.077c0,0,2.587,0.696,0,1.576c-2.589,0.88-15.307,5.648-15.307,5.648
				s-0.264-2.5-0.276-5.648C40.839,73.546,41.26,70.546,41.26,70.546z"/>
			<path fill="#FFFFFF" d="M44.234,96.049l9.63-5.539c0,0,3.551-1.399,0.104-2.148c-3.446-0.749-12.482-2.712-12.482-2.712
				s0.316,2.475,1.086,5.262C43.342,93.699,44.234,96.049,44.234,96.049z"/>
			<path fill="#FFFFFF" d="M53.07,109.473c0,0-2.228-2.151-4.309-4.9c-2.082-2.749-2.52-4.113-2.52-4.113s8.031,0.688,10.195,1.119
				c2.162,0.43,2.081,1.051,1.298,2.005C56.952,104.538,53.07,109.473,53.07,109.473z"/>
			<path fill="#FFFFFF" d="M79.685,44.991c0,0,1.271,0.841,3.353,3.591c2.082,2.749,3.576,5.561,3.576,5.561
				s-8.029-1.151-10.193-1.581c-2.165-0.43-2.083-1.052-1.299-2.006C75.902,49.601,79.685,44.991,79.685,44.991z"/>
			<path fill="#FFFFFF" d="M87.38,56.429l-9.663,5.873c0,0-3.481,1.473,0,2.148c3.482,0.675,13.329,2.585,13.329,2.585
				s-0.761-3.646-1.664-6.417C88.476,57.848,87.38,56.429,87.38,56.429z"/>
			<path fill="#FFFFFF" d="M91.596,70.546L76.42,75.623c0,0-2.59,0.696,0,1.576c2.586,0.88,15.306,5.648,15.306,5.648
				s0.262-2.5,0.274-5.648C92.016,73.546,91.596,70.546,91.596,70.546z"/>
			<path fill="#FFFFFF" d="M88.621,96.049L78.99,90.51c0,0-3.549-1.399-0.102-2.148c3.444-0.749,12.482-2.712,12.482-2.712
				s-0.318,2.475-1.088,5.262C89.514,93.699,88.621,96.049,88.621,96.049z"/>
			<path fill="#FFFFFF" d="M79.787,109.473c0,0,2.226-2.151,4.306-4.9c2.084-2.749,2.521-4.113,2.521-4.113
				s-8.029,0.688-10.193,1.119c-2.165,0.43-2.083,1.051-1.299,2.005C75.902,104.538,79.787,109.473,79.787,109.473z"/>
		</g>
		<g>
			<path fill="#882167" d="M162.748,332.741c-1.511-0.978-2.752-5.299,2.608-10.13c5.36-4.832,9.602-1.341,9.602-1.341
				s4.837,2.879,11.381,6.771c1.616,0.961,7.007-1.314,9.874-1.39c1.838-0.048-1.555,6.335,0.083,7.308
				c0.521,0.31,1.042,0.62,1.563,0.929c0.549,0.326,5.069-1.835,5.617-1.51c1.094,0.649-1.79,3.784-0.716,4.422
				c9.587,5.692,18.052,10.709,18.419,10.891c0.861,0.426,1.123,1.55,0.645,2.791c-2.575,6.698-11.014,28.571-13.569,34.359
				c-3.03,6.86-5.986,3.414-5.048,0c0.788-2.863,7.304-23.623,9.127-30.255c0.352-1.276-1.055-2.03-1.055-2.03
				S164.258,333.719,162.748,332.741z"/>
			<path fill="#711C59" d="M162.748,332.741c-1.511-0.978-3.002-2.86-0.362-6.478c13.11,6.846,53.884,26.178,53.406,27.419
				c-2.575,6.697-8.549,24.057-10.7,30.006c-1.785,4.937-2.133,3.18-1.885,2.152c0.699-2.886,7.304-23.623,9.127-30.255
				c0.352-1.276-1.055-2.03-1.055-2.03S164.258,333.719,162.748,332.741z"/>
			<path opacity="0.5" fill="#DC79B0" d="M168.712,320.5c2.614-1.045,6.246,0.771,6.246,0.771s4.837,2.879,11.381,6.771
				c1.616,0.961,7.007-1.314,9.874-1.39c1.838-0.048-6.75,3.275-8.654,3.285C184.643,329.951,177.582,325.71,168.712,320.5z"/>
			<path opacity="0.5" fill="#DC79B0" d="M202.761,337.8c9.587,5.692,18.052,10.709,18.419,10.891
				c0.861,0.426,1.123,1.55,0.645,2.791C221.18,348.69,201.687,337.162,202.761,337.8z"/>
			<path opacity="0.5" fill="#DC79B0" d="M197.859,334.888c0.577-0.023,4.238-1.207,5.617-1.51
				C204.217,334.487,197.859,334.888,197.859,334.888z"/>
		</g>
		<g>
			<path fill="#882167" d="M120.95,333.143c-1.655-1.07-3.014-5.804,2.856-11.096c5.871-5.292,10.518-1.467,10.518-1.467
				s5.297,3.153,12.465,7.415c1.771,1.052,7.675-1.439,10.814-1.521c2.014-0.053-1.701,6.938,0.092,8.005
				c0.569,0.338,1.141,0.678,1.711,1.017c0.602,0.357,5.554-2.011,6.154-1.654c1.197,0.711-1.961,4.145-0.785,4.843
				c10.5,6.235,19.771,11.729,20.174,11.928c0.943,0.468,1.23,1.699,0.707,3.058c-2.821,7.336-12.063,31.294-14.863,37.634
				c-3.317,7.514-6.556,3.739-5.528,0c0.862-3.136,7.999-25.874,9.997-33.138c0.385-1.399-1.156-2.224-1.156-2.224
				S122.604,334.215,120.95,333.143z"/>
			<path fill="#711C59" d="M120.95,333.143c-1.655-1.07-3.288-3.132-0.397-7.094c14.361,7.498,59.02,28.672,58.496,30.031
				c-2.821,7.336-9.363,26.35-11.721,32.866c-1.955,5.405-2.336,3.482-2.063,2.356c0.767-3.16,7.999-25.874,9.997-33.138
				c0.385-1.399-1.156-2.224-1.156-2.224S122.604,334.215,120.95,333.143z"/>
			<path opacity="0.5" fill="#DC79B0" d="M127.482,319.735c2.863-1.145,6.842,0.845,6.842,0.845s5.297,3.153,12.465,7.415
				c1.771,1.052,7.675-1.439,10.814-1.521c2.014-0.053-7.393,3.587-9.479,3.599C144.931,330.088,137.197,325.442,127.482,319.735z"
				/>
			<path opacity="0.5" fill="#DC79B0" d="M164.775,338.684c10.5,6.235,19.771,11.729,20.174,11.928
				c0.943,0.468,1.23,1.699,0.707,3.058C184.949,350.611,163.6,337.985,164.775,338.684z"/>
			<path opacity="0.5" fill="#DC79B0" d="M159.406,335.495c0.633-0.026,4.643-1.323,6.154-1.654
				C166.37,335.056,159.406,335.495,159.406,335.495z"/>
		</g>
		<g>
			<path fill="#882167" d="M196.412,325.604c-1.314-0.852-2.395-4.612,2.271-8.818c4.665-4.206,8.357-1.167,8.357-1.167
				s4.21,2.506,9.906,5.893c1.407,0.838,6.1-1.143,8.595-1.209c1.6-0.041-1.353,5.515,0.073,6.362
				c0.452,0.269,0.906,0.539,1.359,0.809c0.479,0.284,4.414-1.599,4.891-1.315c0.951,0.564-1.559,3.294-0.623,3.85
				c8.345,4.954,15.713,9.321,16.032,9.479c0.749,0.371,0.978,1.35,0.562,2.43c-2.242,5.83-9.587,24.87-11.812,29.908
				c-2.637,5.972-5.21,2.971-4.393,0c0.686-2.492,6.357-20.563,7.945-26.335c0.305-1.112-0.92-1.768-0.92-1.768
				S197.727,326.456,196.412,325.604z"/>
			<path fill="#711C59" d="M196.412,325.604c-1.314-0.852-2.613-2.491-0.314-5.639c11.412,5.959,46.902,22.787,46.486,23.866
				c-2.241,5.832-7.44,20.941-9.313,26.12c-1.554,4.296-1.856,2.769-1.64,1.873c0.608-2.513,6.357-20.563,7.945-26.335
				c0.305-1.112-0.92-1.768-0.92-1.768S197.727,326.456,196.412,325.604z"/>
			<path opacity="0.5" fill="#DC79B0" d="M201.604,314.949c2.274-0.911,5.437,0.67,5.437,0.67s4.21,2.506,9.906,5.893
				c1.407,0.838,6.1-1.143,8.595-1.209c1.6-0.041-5.875,2.852-7.532,2.86C215.471,323.176,209.324,319.484,201.604,314.949z"/>
			<path opacity="0.5" fill="#DC79B0" d="M231.242,330.008c8.345,4.954,15.713,9.321,16.032,9.479
				c0.749,0.371,0.978,1.35,0.562,2.43C247.274,339.487,230.307,329.452,231.242,330.008z"/>
			<path opacity="0.5" fill="#DC79B0" d="M226.975,327.474c0.504-0.021,3.69-1.052,4.891-1.315
				C232.509,327.124,226.975,327.474,226.975,327.474z"/>
		</g>
	</g>
	<path fill="#882167" d="M103.608,151.275l30.976,18.189c0,0,0.617,1.096,0.303,1.994s-2.063,32.373-2.063,32.373l-4.482-0.448
		c0,0,1.232-28.965,1.78-30.341s-0.317-1.896-0.317-1.896l-25.572-14.722L103.608,151.275z"/>
	<path fill="#882167" d="M31.951,155.518l-0.41,6.207L9.5,183c0,0-0.719,1.396,0,4.001s6.505,28.104,6.505,28.104l-3.505,1.396
		c0,0-6.121-29.394-7-32.334c-0.512-1.712,0-3.667,0-3.667L31.951,155.518z"/>
	<g>
		<path fill="#882167" d="M11.672,215.419l3.367-0.288c0,0,9.695,0.567,14.725,5.727c10.295,10.562,1.521,24.758,1.521,24.758
			s-4.68-13.491-8.601-10.591c-3.922,2.897-2.113,19.896-2.113,19.896s-13.489-5.273-17.541-15.975
			C-1.023,228.243,11.672,215.419,11.672,215.419z"/>
		<path fill="#711C59" d="M20.57,254.92c-5.171-8.243-16.755-20.522-7.187-29.321c4.565-2.58,11.882,7.014,12.899,10.454
			C17.403,230,20.57,254.92,20.57,254.92z"/>
		<path opacity="0.5" fill="#DC79B0" d="M32.411,240.098c0,0,5.317-15.44-10.201-22.091
			C27.405,222.426,30.707,224.796,32.411,240.098z"/>
	</g>
	<path opacity="0.5" fill="#DC79B0" d="M54.501,265.179"/>
	<g>
		<path fill="#882167" d="M130.904,197.841l3.019,1.52c0,0,7.959,5.564,9.538,12.594c3.232,14.392-11.681,21.882-11.681,21.882
			s3.085-13.942-1.774-13.527c-4.858,0.412-12.227,15.837-12.227,15.837s-8.725-11.562-6.566-22.799
			C113.37,202.108,130.904,197.841,130.904,197.841z"/>
		<path fill="#711C59" d="M117.779,236.146c-0.084-9.73-3.514-26.26,9.247-28.738c5.24,0.195,6.443,12.201,5.507,15.664
			C128.143,213.263,117.779,236.146,117.779,236.146z"/>
		<path opacity="0.5" fill="#DC79B0" d="M135.632,229.729c0,0,12.621-10.363,2.891-24.16
			C140.631,212.055,142.2,215.803,135.632,229.729z"/>
	</g>
</g>
</svg>
