<?xml version="1.0" encoding="utf-8"?>
<!-- Generator: Adobe Illustrator 16.0.0, SVG Export Plug-In . SVG Version: 6.00 Build 0)  -->
<!DOCTYPE svg PUBLIC "-//W3C//DTD SVG 1.1//EN" "http://www.w3.org/Graphics/SVG/1.1/DTD/svg11.dtd">
<svg version="1.1" id="Layer_1" xmlns="http://www.w3.org/2000/svg" xmlns:xlink="http://www.w3.org/1999/xlink" x="0px" y="0px"
	 width="230px" height="312px" viewBox="0 0 230 312" enable-background="new 0 0 230 312" xml:space="preserve">
<g>
	<g>
		<g>
			<path opacity="0.6" fill="#58B947" d="M81.6,4.7C20.485,20.922,20.485,62.434,25.098,93.568
				c4.612,31.134,23.062,55.433,19.603,83.066c-3.459,27.633-38.731,57.248-40.359,74.152C2.588,269,32.016,289.598,56.232,268.843
				c24.215-20.757,29.981,28.653,58.809,40.271c28.827,11.618,31.188-27.692,31.188-27.692s33.387,23.753,49.531,6.163
				c16.143-17.59-11.532-46.139-6.92-43.972s46.126,10.238,38.054-13.978c-8.072-24.214-50.737-41.17-56.503-63.827
				c-5.766-22.656,19.611-41.611,12.685-98.762C178.462,28.994,142.716-11.521,81.6,4.7z"/>
			<path opacity="0.8" fill="#58B947" d="M89.976,13.485C32.646,29.521,32.438,67.84,36.781,97.152
				c4.342,29.312,21.712,52.188,18.456,78.205c-3.257,26.016-28.269,57.125-37.997,69.813C2.588,264.28,34.294,277.71,57.093,258.17
				c22.798-19.542,30.226,29.977,57.367,40.914c27.14,10.938,24.665-29.295,24.665-29.295s32.297,26.411,47.497,9.852
				c15.198-16.561-14.342-49.893-9.999-47.853c4.342,2.04,45.744,16.268,38.144-6.531c-7.6-22.797-48.715-31.631-54.144-52.962
				c-5.428-21.33,19.521-44.948,13-98.754C169.279,37.715,140.625-0.681,89.976,13.485z"/>
			<path fill="#A3D285" d="M90.627,17.675c6,1.913,24.633-8.675,52.497,8.478c24.331,14.978,23.999,63.262,23.999,63.262
				S154.51,41.02,130.625,30.152C111.573,21.484,90.627,17.675,90.627,17.675z"/>
			<path opacity="0.8" fill="#2BB24A" d="M36.299,267.52C52,256,77.001,227.797,78,214.398s5.789,61.999,16.895,67.967
				c-9.034-13.731-16.697-21.843-22.935-27.533C64,247.57,49.807,269.005,36.299,267.52z"/>
			<path opacity="0.8" fill="#2BB24A" d="M160.613,282.365c0,0-19.613-15.365-27.613-50.865c0.5,18.5,3.249,33.578,6.125,38.289
				C142,274.5,160.613,282.365,160.613,282.365z"/>
			<path opacity="0.8" fill="#2BB24A" d="M36.781,97.152c-1.15-9.485,15.724,51.4,33.224,67.95S59,197,30.824,227.021
				C51.5,199,54.267,180.555,55.633,168.027S37.5,109,36.781,97.152z"/>
		</g>
		<path fill="#A3D285" d="M167.123,193.667c8.588,3.927,45.545,18.666,44.877,37.333C210.667,243,220.667,228.334,167.123,193.667z"
			/>
		<path fill="#A3D285" d="M172.667,235.129c1.333,1.871,21.908,21.697,12,40.119C185.897,255.929,172.667,235.129,172.667,235.129z"
			/>
	</g>
	<path opacity="0.5" fill="#2BB24A" d="M98.773,239.301c-6.501,1.86-7.742-6.02-10.429-15.406
		c-2.687-9.388,1.665-20.159,8.167-22.02c6.502-1.861,12.704,5.289,14.399,15.561C112.67,228.124,105.276,237.439,98.773,239.301z"
		/>
	<path opacity="0.5" fill="#2BB24A" d="M140.375,119.447c9.97-2.509,13.3,12,12.182,23.675c-1.118,11.677-4.75,19.908-13.64,21.391
		c-9.664,1.61-11.38-9.075-10.261-20.751C129.773,132.087,135.695,120.624,140.375,119.447z"/>
	<path opacity="0.5" fill="#2BB24A" d="M173.121,250.813c-1.391,3.878-5.729,1.69-11.33-0.316c-5.6-2.007-9.381-7.988-7.991-11.867
		c1.391-3.879,7.133-4.405,12.817-1.593C172.531,239.965,174.512,246.934,173.121,250.813z"/>
	<path opacity="0.5" fill="#2BB24A" d="M64.915,41.676c3.529,2.126-0.871,8.277-5.667,16.244
		c-4.797,7.967-13.026,13.191-16.556,11.065c-3.53-2.126-1.398-10.382,4.307-18.442C52.937,42.157,61.384,39.55,64.915,41.676z"/>
	<g>
		
			<ellipse transform="matrix(0.9888 -0.1491 0.1491 0.9888 -14.386 10.1015)" fill="#FDFEFD" cx="60.179" cy="100.998" rx="13.411" ry="14.85"/>
		<path fill="#010101" d="M65.764,99.516c-3.271,0.494-6.324-1.76-6.817-5.031c-0.221-1.469,0.114-2.891,0.845-4.06
			c-0.477,0.005-0.956,0.03-1.441,0.103c-5.663,0.854-9.561,6.138-8.708,11.8c0.854,5.664,6.136,9.562,11.798,8.707
			c5.663-0.854,9.562-6.135,8.708-11.799c-0.105-0.701-0.28-1.374-0.514-2.017C68.724,98.414,67.368,99.274,65.764,99.516z"/>
		
			<ellipse transform="matrix(0.9888 -0.1491 0.1491 0.9888 -11.017 13.9565)" fill="#FDFEFD" cx="87.6" cy="80.477" rx="13.411" ry="14.849"/>
		<path fill="#010101" d="M93.185,78.994c-3.272,0.494-6.324-1.758-6.818-5.03c-0.222-1.47,0.115-2.893,0.845-4.062
			c-0.476,0.006-0.956,0.031-1.44,0.105c-5.664,0.854-9.562,6.136-8.708,11.798c0.853,5.664,6.136,9.562,11.799,8.708
			c5.663-0.854,9.562-6.136,8.707-11.799c-0.105-0.701-0.279-1.376-0.515-2.019C96.145,77.894,94.79,78.753,93.185,78.994z"/>
		
			<ellipse transform="matrix(0.9888 -0.1491 0.1491 0.9888 -9.8855 18.9292)" fill="#FDFEFD" cx="121.305" cy="75.396" rx="13.411" ry="14.849"/>
		<path fill="#010101" d="M126.889,73.914c-3.271,0.493-6.324-1.76-6.816-5.032c-0.221-1.468,0.114-2.892,0.844-4.06
			c-0.477,0.005-0.955,0.031-1.44,0.104c-5.663,0.854-9.561,6.136-8.708,11.798c0.854,5.664,6.137,9.562,11.8,8.709
			c5.663-0.854,9.562-6.137,8.707-11.8c-0.104-0.703-0.279-1.375-0.515-2.018C129.85,72.812,128.493,73.671,126.889,73.914z"/>
		
			<ellipse transform="matrix(0.9888 -0.1491 0.1491 0.9888 -11.9599 23.833)" fill="#FDFEFD" cx="152.974" cy="91.683" rx="13.411" ry="14.85"/>
		<path fill="#010101" d="M158.559,90.202c-3.272,0.493-6.324-1.761-6.817-5.031c-0.222-1.469,0.114-2.892,0.844-4.062
			c-0.477,0.005-0.956,0.032-1.44,0.104c-5.662,0.854-9.561,6.138-8.707,11.801c0.854,5.662,6.137,9.562,11.799,8.707
			c5.663-0.854,9.561-6.136,8.707-11.8c-0.105-0.703-0.279-1.375-0.514-2.018C161.519,89.102,160.162,89.961,158.559,90.202z"/>
	</g>
	<path fill="#010101" d="M71.798,143.156c0,0,0.216,19.819,22.902,16.062c17.812-2.948,14.373-16.019,27.731-21.659
		c11.197-4.728,12.982-18.715-5.464-18.712c-11.455,0.002-42.625,3.901-45.169,22.243"/>
	<path fill="#FFFFFF" d="M94.895,121.909c0,0,3.597-1.297,8.021-2.076s7.577-0.672,7.577-0.672l1.385,11.339
		c0,0,0.878,2.28-4.02,5.14s-9.503,0-9.503,0s-3.458-2.12-3.46-4.381C94.893,128.75,94.895,121.909,94.895,121.909z"/>
	<path fill="#A3D285" d="M103.979,155.963c0,0-6.292,3.729-16.379,3.729c-10.654,0-11.768-5.28-13.499-8.991
		C76,159,69.032,166.117,73.349,169.559s6.055-5.018,8.151-4.428c4.5,3.536-8.5,13.202,0,14.869s13.394-14.5,13.394-14.5
		s5.772,2.833,8.106,0S103.979,155.963,103.979,155.963z"/>
	<path fill="#A3D285" d="M97.688,170.72c-1.688,5.947-5.021,6.521-5.354,9.4s3.376,6.546,7.021,2.213S98.708,172.772,97.688,170.72z
		"/>
	<path fill="#FFFFFF" d="M82.667,178.522c0,0,5.986,0.404,8.739-10.547C94.159,157.024,82.667,178.522,82.667,178.522z"/>
	<path fill="#FFFFFF" d="M100.797,165.411c2.203,0.089,2.703-1.865,2.62-6.472S100.797,165.411,100.797,165.411z"/>
	<path fill="#FFFFFF" d="M94.895,182.667c0,0,3.203,0.678,4.46-2.547S94.895,182.667,94.895,182.667z"/>
</g>
</svg>
