<?xml version="1.0" encoding="utf-8"?>
<!-- Generator: Adobe Illustrator 16.0.0, SVG Export Plug-In . SVG Version: 6.00 Build 0)  -->
<!DOCTYPE svg PUBLIC "-//W3C//DTD SVG 1.1//EN" "http://www.w3.org/Graphics/SVG/1.1/DTD/svg11.dtd">
<svg version="1.1" id="Layer_1" xmlns="http://www.w3.org/2000/svg" xmlns:xlink="http://www.w3.org/1999/xlink" x="0px" y="0px"
	 width="228px" height="391px" viewBox="0 0 228 391" enable-background="new 0 0 228 391" xml:space="preserve">
<g>
	<path fill="#33A9E0" d="M170.201,71.643c0,0,20.024-16.184,21.039-33.286c1.016-17.102-10.52-4.275-10.52-4.275
		s-17.282,32.352-20.058,30.711C157.889,63.151,170.201,71.643,170.201,71.643z"/>
	<path opacity="0.6" fill="#57CAF2" d="M171.057,70.788c0,0,20.908-16.154,21.039-33.286c0.078-10.135-8.202-8.266-10.52-4.275
		c5.093,14.252-10.666,35.417-13.44,33.776C165.36,65.361,171.057,70.788,171.057,70.788z"/>
	<path fill="#33A9E0" d="M102.014,320.539c0,0,5.558,2.779,11.116,2.458c5.558-0.32,11.116-3.74,11.116-2.458
		c0,3.42,0.384,27.292-0.855,37.624s12.868,16.152,25.694,24.145c12.827,7.992,47.843-6.545,35.018-18.222
		c-7.648-7.602-28.548-17.194-28.548-17.194S171,310.074,171,293.753s0-48.462,0-48.462s9.936,19.597,15.143,30.15
		c6.891,13.966,17.82,24.104,25.812,29.898c7.992,5.793,19.529,3.974,15.334-6.426c-4.195-10.398-16.922-41.982-16.922-41.982
		s-15.92-41.117-20.715-51.83c-2.769-6.186-14.543-24.323-28.836-24.832c-14.295-0.509-80.991-3.09-96.383-1.702
		c-15.392,1.388-24.368,16.763-24.368,16.763s-29.856,74.146-36.388,93.705c-6.842,20.479,5.985,27.64,18.699,11.288
		c4.889-6.287,38.211-67.86,38.211-67.86s-12.353,47.859-7.696,68.538c4.656,20.68,15.011,45.068,11.544,51.269
		c-2.77,4.954-7.666,9.87-12.76,18.269c-1.281,2.111-2.519,4.019-2.519,7.049c0,17.353,36.26,17.034,40.93,7.396
		c4.67-9.638,11.622-15.808,11.543-23.824C101.552,353.143,102.014,320.539,102.014,320.539z"/>
	<path fill="#33A9E0" d="M196.969,124.535c-5.558,39.25-45.318,71.126-83.795,71.126c-41.043,0-76.955-31.876-83.796-71.126
		c-7.069-40.56,37.517-74.546,83.796-74.546S202.742,83.771,196.969,124.535z"/>
	<path fill="#33A9E0" d="M50.529,72.498c0,0-20.023-16.184-21.039-33.286c-1.016-17.102,10.521-4.276,10.521-4.276
		s17.282,32.353,20.057,30.711C62.843,64.006,50.529,72.498,50.529,72.498z"/>
	<path fill="#EFD3CE" d="M176.135,136.989c-4.192,29.607-29.661,40.749-58.687,40.749c-30.959,0-62.57-11.142-67.73-40.749
		c-5.332-30.595,28.3-53.651,63.208-53.651C147.835,83.337,180.489,106.24,176.135,136.989z"/>
	<path fill="#51381B" d="M50.029,122.825c1.208,0.216,15.7-6.083,11.281-1.913c-4.643,4.381,14.583-7.124,12.083-3.202
		c-4.834,7.583,13.343-8.471,12.714-3.882c-0.536,3.914,19.973-10.813,16.729-5.89c-4.104,6.229,15.384-10.861,14.362-6.059
		c-1.603,7.538,10.826-9.232,10.597-5.639c-0.269,4.211,8.46-6.103,9.816-9.014c-17.641-7.824-40.876-6.515-62.607,5.657
		C53.272,105.055,50.029,122.825,50.029,122.825z"/>
	<path fill="#57CAF2" d="M6.242,309.516c0,0,10.379,0.65,20.153-15.54c9.775-16.191,34.192-61.512,34.192-61.512
		s1.104-4.972-0.113-8.899C24.199,264.958,6.242,309.516,6.242,309.516z"/>
	<path fill="#57CAF2" d="M169.173,243.299c0,0-0.034-2.284-0.034-10.835c31.639,59.002,52.588,76.121,52.588,76.121
		s-19.667-3.438-30.423-22.25C186.28,275.441,169.173,243.299,169.173,243.299z"/>
	<path opacity="0.8" fill="#57CAF2" d="M160.256,184.579c0,0,15.414,0.58,31.048,29.074c5.067,11.844,35.854,88.367,35.854,88.367
		s-25.538-59.033-36.709-80.672C179.277,199.711,160.256,184.579,160.256,184.579z"/>
	<path opacity="0.6" fill="#137DB6" d="M60.588,232.464c0,0-12.285,31.675-8.664,66.45c6.747,25.832,11.339,38.796,13.121,47.978
		c-1.083,9.562-15.931,22.388-15.888,30.696c0.024,4.69,19.507,10.906,27.203,4.72c-36.77,2.245-4.275-35.416-4.275-35.416
		s5.985-16.188,8.551-34.808C58.403,304.196,60.588,232.464,60.588,232.464z"/>
	<path opacity="0.6" fill="#137DB6" d="M102.014,320.967c0,0,21.805-1.496,24.798-6.199c2.992-4.703,3.42,45.533,3.42,45.533
		l-6.528-5.178l0.543-34.156C108.427,327.38,102.014,320.967,102.014,320.967z"/>
	<path fill="#57CAF2" d="M101.63,355.603c-0.005,1.281-12.007,21.046-18.429,24.366c-1.959,1.013,3.42,4.703,4.761,7.498
		c4.218-4.934,14.435-19.473,14.052-22.891C101.63,361.159,101.63,355.603,101.63,355.603z"/>
	<path opacity="0.5" fill="#57CAF2" d="M49.157,377.588c1.289,2.229,0.855,11.214,15.739,13.424
		c14.885,2.211,23.065-3.545,23.065-3.545l-4.761-7.498c0,0-6.681,6.524-18.305,4.331S49.157,377.588,49.157,377.588z"/>
	<path opacity="0.4" fill="#57CAF2" d="M123,355.123c0,0,14.732,14.584,34.243,22.465c-0.333,4.854-0.576,6.965-0.576,6.965
		S146,385.954,123,363.722C123,358.163,123,355.123,123,355.123z"/>
	<path fill="#57CAF2" d="M157.438,377.588l-0.479,6.965c0,0,14.56-1.115,20.852-4.773c6.291-3.659,7.267-5.562,8.703-8.245
		c1.436-2.683-1.262-6.235-1.262-6.235s-5.503,7.206-13.516,9.031C162,376.548,157.438,377.588,157.438,377.588z"/>
	<path fill="#239AD6" d="M64.436,178.568c0,0-11.014-0.337-20.708,11.815C34.033,202.535,2.254,294.442,2.254,294.442
		s39.238-85.977,47.775-97.103C58.567,186.215,64.436,178.568,64.436,178.568z"/>
	<path opacity="0.6" fill="#137DB6" d="M50.529,72.498c0,0-20.023-16.184-21.039-33.286c-0.159-13.396,7.251-9.976,10.521-4.276
		c-2.699,11.402,12.056,36.211,14.83,34.569C57.616,67.865,50.529,72.498,50.529,72.498z"/>
	<path opacity="0.6" fill="#137DB6" d="M64.436,178.568c0,0-39.096-23.347-34.947-71.563c2.692-20.191,24.287-37.072,24.287-37.072
		S43.77,84.304,40.162,109.045C36.172,136.409,64.436,178.568,64.436,178.568z"/>
	<path opacity="0.6" fill="#57CAF2" d="M196.969,124.535c-2.311,16.319-10.534,31.364-22.119,43.373
		c-8.01,8.302,23.39-40.532,0.931-70.264c-23.191-30.702-47.828-38.194-79.784-46.116c5.634-1.008,11.393-1.539,17.178-1.539
		C159.453,49.989,202.742,83.771,196.969,124.535z"/>
	<g>
		
			<ellipse transform="matrix(0.9244 0.3815 -0.3815 0.9244 104.9773 6.764)" fill="#A1DDF3" cx="35.427" cy="268.176" rx="4.388" ry="9.628"/>
		
			<ellipse transform="matrix(0.9244 0.3815 -0.3815 0.9244 104.891 6.8027)" opacity="0.4" fill="#137DB6" cx="35.289" cy="267.944" rx="3.38" ry="7.417"/>
	</g>
	<g>
		
			<ellipse transform="matrix(0.9243 0.3816 -0.3816 0.9243 116.0479 16.995)" fill="#A1DDF3" cx="15.169" cy="301.127" rx="2.163" ry="4.745"/>
		
			<ellipse transform="matrix(0.9244 0.3813 -0.3813 0.9244 115.9247 16.986)" opacity="0.4" fill="#137DB6" cx="15.101" cy="301.013" rx="1.666" ry="3.655"/>
	</g>
	<g>
		
			<ellipse transform="matrix(0.9244 0.3815 -0.3815 0.9244 100.0548 2.0789)" fill="#A1DDF3" cx="44.784" cy="253.407" rx="1.933" ry="4.24"/>
		
			<ellipse transform="matrix(0.9244 0.3815 -0.3815 0.9244 100.0162 2.0956)" opacity="0.4" fill="#137DB6" cx="44.723" cy="253.305" rx="1.489" ry="3.266"/>
	</g>
	<g>
		
			<ellipse transform="matrix(0.9244 0.3815 -0.3815 0.9244 94.8865 -2.3976)" fill="#A1DDF3" cx="53.491" cy="238.133" rx="1.933" ry="6.889"/>
		
			<ellipse transform="matrix(0.9244 0.3814 -0.3814 0.9244 94.8031 -2.3957)" opacity="0.4" fill="#137DB6" cx="53.446" cy="237.99" rx="1.489" ry="5.305"/>
	</g>
	<g>
		
			<ellipse transform="matrix(0.9244 0.3815 -0.3815 0.9244 111.3457 12.0529)" fill="#A1DDF3" cx="25.272" cy="286.873" rx="1.933" ry="6.889"/>
		
			<ellipse transform="matrix(0.9244 0.3815 -0.3815 0.9244 111.2931 12.0607)" opacity="0.4" fill="#137DB6" cx="25.228" cy="286.73" rx="1.489" ry="5.306"/>
	</g>
	<g>
		
			<ellipse transform="matrix(0.9243 0.3817 -0.3817 0.9243 112.0859 14.9445)" fill="#A1DDF3" cx="18.373" cy="290.001" rx="1.621" ry="3.555"/>
		
			<ellipse transform="matrix(0.9243 0.3818 -0.3818 0.9243 112.0639 14.9626)" opacity="0.4" fill="#137DB6" cx="18.322" cy="289.916" rx="1.248" ry="2.738"/>
	</g>
	<g>
		
			<ellipse transform="matrix(0.7715 -0.6363 0.6363 0.7715 -139.9569 194.3489)" fill="#A1DDF3" cx="200.567" cy="292.003" rx="1.932" ry="6.89"/>
		
			<ellipse transform="matrix(0.7713 -0.6365 0.6365 0.7713 -139.9973 194.3342)" opacity="0.4" fill="#137DB6" cx="200.42" cy="291.976" rx="1.488" ry="5.306"/>
	</g>
	<g>
		
			<ellipse transform="matrix(0.8924 -0.4512 0.4512 0.8924 -104.9205 116.541)" fill="#A1DDF3" cx="191.93" cy="278.292" rx="2.634" ry="5.78"/>
		<path opacity="0.4" fill="#137DB6" d="M193.58,277.35c1.108,2.192,1.198,4.384,0.198,4.887c-1,0.508-2.711-0.863-3.82-3.055
			c-1.109-2.196-1.196-4.385-0.197-4.89C190.761,273.786,192.469,275.154,193.58,277.35z"/>
	</g>
	<g>
		
			<ellipse transform="matrix(0.9 -0.4359 0.4359 0.9 -93.945 103.9612)" fill="#A1DDF3" cx="179.624" cy="256.746" rx="1.932" ry="8.029"/>
		
			<ellipse transform="matrix(0.9 -0.4359 0.4359 0.9 -93.9313 103.9016)" opacity="0.4" fill="#137DB6" cx="179.479" cy="256.667" rx="1.489" ry="6.183"/>
	</g>
	<g>
		
			<ellipse transform="matrix(0.911 -0.4125 0.4125 0.911 -93.8216 101.0826)" fill="#A1DDF3" cx="187.251" cy="267.883" rx="1.373" ry="3.013"/>
		<path opacity="0.4" fill="#137DB6" d="M188.133,267.429c0.528,1.167,0.525,2.31-0.005,2.55c-0.534,0.242-1.394-0.51-1.924-1.677
			c-0.528-1.17-0.525-2.312,0.006-2.553C186.743,265.509,187.604,266.26,188.133,267.429z"/>
	</g>
	<path fill="#010101" d="M100.303,161.491c0,0,3.421,9.749,13.682,9.749c10.262,0,11.972-9.749,11.972-9.749
		s-7.125-1.71-12.826-1.71C107.428,159.781,100.303,161.491,100.303,161.491z"/>
	<path fill="#DDBAB6" d="M107.396,148.5c0,0,1.445,4.901,5.78,4.901c4.336,0,5.059-4.901,5.059-4.901H107.396z"/>
	<g>
		
			<radialGradient id="SVGID_1_" cx="115.0332" cy="96.3145" r="155.276" gradientTransform="matrix(0.9994 0.0357 -0.027 0.7538 2.6697 19.6037)" gradientUnits="userSpaceOnUse">
			<stop  offset="0.5156" style="stop-color:#FFFFFF;stop-opacity:0.1"/>
			<stop  offset="0.5738" style="stop-color:#EEF9FC;stop-opacity:0.2405"/>
			<stop  offset="0.689" style="stop-color:#C2EAF3;stop-opacity:0.5185"/>
			<stop  offset="0.8489" style="stop-color:#7CD2E6;stop-opacity:0.9043"/>
			<stop  offset="0.8886" style="stop-color:#69CCE2"/>
		</radialGradient>
		<path fill="url(#SVGID_1_)" d="M223.125,92.068c0,54.217-46.033,98.17-108.092,98.17S6.942,146.285,6.942,92.068
			C6.942,37.85,52.975,2.39,115.033,2.39S223.125,37.85,223.125,92.068z"/>
		<path opacity="0.6" fill="#FFFFFF" d="M119.67,19.489c0,0,93.744-5.131,93.694,89.783C178.734,27.185,119.67,19.489,119.67,19.489
			z"/>
		<linearGradient id="SVGID_2_" gradientUnits="userSpaceOnUse" x1="152.9561" y1="115.791" x2="177.5847" y2="73.1329">
			<stop  offset="0.1349" style="stop-color:#FFFFFF;stop-opacity:0"/>
			<stop  offset="0.8886" style="stop-color:#FFFFFF;stop-opacity:0.6"/>
		</linearGradient>
		<path fill="url(#SVGID_2_)" d="M191.119,115.049c-4.057,17.871-31.961,6.209-44.085-3.32
			c-12.122-9.529-24.507-22.246-8.225-33.656c13.052-9.147,27.005-13.947,39.129-4.417
			C190.061,83.183,194.647,99.506,191.119,115.049z"/>
	</g>
	<path fill="#239AD6" d="M63.581,179.423c11.783,6.854,19.099,11.815,47.452,11.815c28.544,0,42.238-6.66,42.238-6.66
		s-13.694,45.353-74.406,30.498c-22.758-4.831-38.799-19.745-29.708-29.965C53.235,180.528,63.581,179.423,63.581,179.423z"/>
	<g opacity="0.5">
		<g>
			<path fill="#167BB8" d="M61.219,375.213c-5.364,0-7.073-3.597-7.228-5.499c-0.058-0.706,0.468-1.324,1.175-1.382
				c0.703-0.044,1.318,0.463,1.381,1.162c0.035,0.333,0.461,3.153,4.672,3.153c4.313,0,4.979-2.713,5.041-3.022
				c0.136-0.688,0.808-1.146,1.493-1.02c0.69,0.129,1.15,0.778,1.032,1.47C68.479,371.853,66.504,375.213,61.219,375.213z"/>
		</g>
		<g opacity="0.7">
			<path fill="#167BB8" d="M77.833,380.344c-4.777,0-6.292-3.606-6.425-5.513c-0.051-0.707,0.482-1.32,1.188-1.369
				c0.695-0.055,1.314,0.477,1.369,1.181c0.046,0.527,0.451,3.136,3.867,3.136c3.573,0,4.131-2.685,4.183-2.99
				c0.117-0.694,0.778-1.17,1.467-1.06c0.695,0.11,1.172,0.754,1.068,1.449C84.285,376.965,82.539,380.344,77.833,380.344z"/>
		</g>
		<g opacity="0.7">
			<path fill="#167BB8" d="M81.762,367.517c-4.776,0-6.291-3.605-6.425-5.512c-0.051-0.708,0.482-1.32,1.188-1.37
				c0.69-0.062,1.314,0.479,1.369,1.182c0.047,0.527,0.451,3.135,3.867,3.135c3.695,0,4.162-2.856,4.181-2.978
				c0.104-0.7,0.754-1.186,1.457-1.08c0.701,0.104,1.185,0.757,1.08,1.458C88.214,364.139,86.467,367.517,81.762,367.517z"/>
		</g>
		<g opacity="0.7">
			<path fill="#167BB8" d="M92.854,358.966c-4.776,0-6.291-3.605-6.425-5.513c-0.051-0.707,0.482-1.319,1.189-1.369
				c0.694-0.055,1.313,0.477,1.368,1.181c0.047,0.528,0.452,3.136,3.867,3.136c3.695,0,4.163-2.856,4.181-2.978
				c0.104-0.701,0.754-1.189,1.457-1.08c0.701,0.104,1.185,0.757,1.08,1.457C99.307,355.587,97.56,358.966,92.854,358.966z"/>
		</g>
		<g>
			<path fill="#167BB8" d="M72.336,356.4c-5.365,0-7.074-3.597-7.229-5.499c-0.058-0.705,0.469-1.324,1.175-1.382
				c0.696-0.046,1.317,0.463,1.381,1.162c0.035,0.334,0.461,3.153,4.673,3.153c4.312,0,4.979-2.713,5.04-3.022
				c0.137-0.688,0.806-1.144,1.493-1.019c0.69,0.128,1.15,0.778,1.032,1.47C79.596,353.04,77.62,356.4,72.336,356.4z"/>
		</g>
		<g opacity="0.7">
			<path fill="#167BB8" d="M84.72,346.14c-4.776,0-6.292-3.606-6.425-5.513c-0.051-0.706,0.482-1.32,1.188-1.369
				c0.699-0.054,1.314,0.478,1.369,1.18c0.046,0.528,0.451,3.137,3.867,3.137c3.573,0,4.131-2.684,4.183-2.989
				c0.117-0.694,0.777-1.169,1.467-1.06c0.695,0.109,1.172,0.753,1.068,1.448C91.172,342.761,89.426,346.14,84.72,346.14z"/>
		</g>
		<g opacity="0.6">
			<path fill="#167BB8" d="M69.771,330.748c-5.364,0-7.074-3.597-7.229-5.499c-0.058-0.706,0.469-1.324,1.175-1.382
				c0.69-0.048,1.317,0.462,1.381,1.162c0.035,0.333,0.461,3.153,4.673,3.153c4.312,0,4.979-2.714,5.04-3.023
				c0.137-0.687,0.807-1.146,1.493-1.019c0.69,0.129,1.15,0.778,1.032,1.47C77.03,327.388,75.055,330.748,69.771,330.748z"/>
		</g>
		<g opacity="0.6">
			<path fill="#167BB8" d="M91.999,333.312c-4.776,0-6.291-3.605-6.425-5.512c-0.05-0.707,0.482-1.32,1.189-1.369
				c0.686-0.062,1.314,0.478,1.368,1.181c0.047,0.527,0.452,3.136,3.867,3.136c3.695,0,4.163-2.857,4.182-2.979
				c0.104-0.7,0.752-1.188,1.457-1.079c0.7,0.104,1.185,0.756,1.079,1.457C98.452,329.935,96.705,333.312,91.999,333.312z"/>
		</g>
		<g opacity="0.6">
			<path fill="#167BB8" d="M82.597,320.486c-5.364,0-7.074-3.597-7.229-5.499c-0.058-0.705,0.469-1.324,1.175-1.382
				c0.704-0.047,1.318,0.463,1.382,1.162c0.034,0.334,0.461,3.153,4.672,3.153c4.313,0,4.979-2.713,5.04-3.022
				c0.137-0.688,0.808-1.145,1.493-1.019c0.69,0.128,1.151,0.778,1.032,1.47C89.856,317.126,87.882,320.486,82.597,320.486z"/>
		</g>
		<g opacity="0.6">
			<path fill="#167BB8" d="M63.784,312.791c-5.364,0-7.073-3.597-7.228-5.499c-0.058-0.706,0.468-1.324,1.175-1.382
				c0.692-0.049,1.317,0.462,1.381,1.162c0.035,0.333,0.461,3.153,4.672,3.153c4.313,0,4.979-2.714,5.041-3.023
				c0.136-0.687,0.808-1.142,1.493-1.019c0.69,0.129,1.15,0.778,1.031,1.47C71.045,309.431,69.069,312.791,63.784,312.791z"/>
		</g>
		<g opacity="0.7">
			<path fill="#167BB8" d="M165.892,364.951c-5.285,0-7.26-3.36-7.565-5.137c-0.12-0.698,0.349-1.361,1.047-1.481
				c0.695-0.118,1.361,0.348,1.481,1.047c0.059,0.293,0.724,3.007,5.037,3.007c4.221,0,4.639-2.833,4.673-3.155
				c0.073-0.699,0.711-1.211,1.395-1.151c0.7,0.064,1.218,0.673,1.161,1.373C172.966,361.354,171.256,364.951,165.892,364.951z"/>
		</g>
		<g opacity="0.7">
			<path fill="#167BB8" d="M158.685,375.213c-4.706,0-6.452-3.379-6.718-5.166c-0.104-0.7,0.379-1.354,1.079-1.457
				c0.707-0.111,1.354,0.38,1.457,1.08c0.051,0.294,0.607,2.978,4.182,2.978c0.373,0,3.652-0.088,3.866-3.127
				c0.049-0.708,0.661-1.251,1.369-1.189c0.707,0.049,1.239,0.662,1.189,1.369C164.976,371.607,163.461,375.213,158.685,375.213z"/>
		</g>
		<g opacity="0.7">
			<path fill="#167BB8" d="M145.35,365.807c-4.706,0-6.453-3.379-6.719-5.166c-0.104-0.7,0.38-1.353,1.08-1.457
				c0.7-0.111,1.353,0.379,1.457,1.08c0.051,0.294,0.608,2.978,4.182,2.978c0.373,0,3.652-0.088,3.866-3.127
				c0.05-0.707,0.677-1.25,1.369-1.189c0.707,0.05,1.239,0.662,1.189,1.37C151.641,362.201,150.126,365.807,145.35,365.807z"/>
		</g>
		<g opacity="0.7">
			<path fill="#167BB8" d="M131.691,358.11c-4.706,0-6.453-3.378-6.719-5.165c-0.104-0.701,0.38-1.354,1.08-1.457
				c0.695-0.108,1.354,0.379,1.457,1.079c0.051,0.294,0.608,2.979,4.182,2.979c0.373,0,3.652-0.088,3.866-3.128
				c0.05-0.707,0.674-1.242,1.369-1.188c0.707,0.049,1.239,0.662,1.189,1.369C137.982,354.505,136.468,358.11,131.691,358.11z"/>
		</g>
		<g opacity="0.7">
			<path fill="#167BB8" d="M152.21,355.546c-5.285,0-7.26-3.36-7.565-5.138c-0.12-0.698,0.35-1.361,1.047-1.481
				c0.697-0.117,1.361,0.349,1.481,1.047c0.059,0.294,0.725,3.007,5.037,3.007c4.221,0,4.639-2.833,4.673-3.155
				c0.073-0.699,0.703-1.208,1.395-1.151c0.7,0.065,1.218,0.673,1.161,1.373C159.284,351.949,157.574,355.546,152.21,355.546z"/>
		</g>
		<g opacity="0.7">
			<path fill="#167BB8" d="M139.826,345.284c-4.706,0-6.452-3.379-6.718-5.165c-0.104-0.701,0.379-1.354,1.079-1.458
				c0.708-0.11,1.354,0.38,1.458,1.08c0.05,0.294,0.606,2.978,4.181,2.978c0.373,0,3.652-0.088,3.866-3.127
				c0.05-0.707,0.671-1.247,1.37-1.189c0.706,0.05,1.238,0.663,1.188,1.37C146.117,341.679,144.602,345.284,139.826,345.284z"/>
		</g>
		<g opacity="0.6">
			<path fill="#167BB8" d="M154.775,329.893c-5.285,0-7.26-3.36-7.565-5.138c-0.12-0.697,0.349-1.36,1.047-1.481
				c0.696-0.117,1.361,0.349,1.481,1.048c0.059,0.293,0.725,3.006,5.037,3.006c4.221,0,4.639-2.832,4.673-3.154
				c0.073-0.699,0.702-1.215,1.395-1.152c0.7,0.065,1.218,0.674,1.161,1.373C161.85,326.296,160.14,329.893,154.775,329.893z"/>
		</g>
		<g opacity="0.6">
			<path fill="#167BB8" d="M132.546,332.458c-4.705,0-6.452-3.379-6.718-5.166c-0.104-0.7,0.379-1.353,1.08-1.457
				c0.697-0.107,1.354,0.379,1.457,1.08c0.05,0.294,0.607,2.978,4.181,2.978c0.374,0,3.653-0.088,3.866-3.127
				c0.05-0.708,0.668-1.25,1.37-1.189c0.706,0.049,1.239,0.662,1.188,1.369C138.838,328.852,137.322,332.458,132.546,332.458z"/>
		</g>
		<g opacity="0.6">
			<path fill="#167BB8" d="M141.949,319.632c-5.285,0-7.26-3.36-7.565-5.138c-0.12-0.698,0.349-1.361,1.047-1.481
				c0.694-0.117,1.361,0.349,1.481,1.047c0.059,0.294,0.724,3.007,5.037,3.007c4.22,0,4.639-2.833,4.673-3.155
				c0.072-0.699,0.702-1.213,1.395-1.151c0.7,0.065,1.218,0.673,1.161,1.373C149.022,316.035,147.313,319.632,141.949,319.632z"/>
		</g>
		<g opacity="0.6">
			<path fill="#167BB8" d="M160.761,311.936c-5.284,0-7.26-3.36-7.565-5.138c-0.12-0.697,0.35-1.36,1.047-1.481
				c0.696-0.115,1.361,0.35,1.482,1.048c0.058,0.293,0.724,3.006,5.036,3.006c4.221,0,4.64-2.832,4.673-3.154
				c0.073-0.698,0.712-1.213,1.395-1.152c0.7,0.065,1.218,0.674,1.161,1.373C167.835,308.339,166.125,311.936,160.761,311.936z"/>
		</g>
	</g>
	<path opacity="0.8" fill="#57CAF2" d="M166.146,236.739c0,0,0,49.596-1.71,63.277s-14.109,47.03-14.109,47.03
		s30.783,18.036,20.95,25.479c-9.834,7.443,8.551-1.472,10.688-4.956c2.138-3.483-28.218-20.95-28.218-20.95
		s12.452-28.416,14.536-46.603c1.17-10.209,0.855-67.553,0.855-67.553L166.146,236.739z"/>
	<path fill="#E84F4E" d="M106.071,168.844c0.997,0.63,1.325-6.783,8.067-3.333c5.986-3.45,7.255,3.4,7.255,3.4
		s-2.386,2.329-7.409,2.329C109.068,171.24,106.071,168.844,106.071,168.844z"/>
	<g opacity="0.6">
		<g opacity="0.6">
			<path fill="#167BB8" d="M7.211,295.182c-2.398-1.178-2.21-3.49-1.776-4.549c0.161-0.393,0.56-0.611,0.892-0.487
				c0.326,0.13,0.466,0.538,0.309,0.93c-0.072,0.187-0.628,1.8,1.254,2.725c1.929,0.945,2.943-0.37,3.054-0.524
				c0.242-0.341,0.663-0.438,0.936-0.221c0.275,0.22,0.31,0.672,0.073,1.019C11.345,294.964,9.572,296.34,7.211,295.182z"/>
		</g>
		<g opacity="0.6">
			<path fill="#167BB8" d="M21.486,267.788c-2.273-1.117-2.096-3.31-1.685-4.312c0.152-0.373,0.53-0.579,0.845-0.463
				c0.31,0.123,0.441,0.511,0.293,0.881c-0.068,0.179-0.596,1.708,1.189,2.584c1.828,0.896,2.789-0.351,2.894-0.497
				c0.229-0.323,0.629-0.416,0.888-0.209c0.261,0.208,0.293,0.636,0.07,0.965C25.404,267.582,23.726,268.886,21.486,267.788z"/>
		</g>
		<path opacity="0.6" fill="#167BB8" d="M16.093,269.104c-0.304-0.242-0.772-0.134-1.041,0.245
			c-0.123,0.171-1.252,1.635-3.396,0.583c-0.436-0.214-0.749-0.462-0.979-0.721c-0.201,0.618-0.406,1.208-0.609,1.738
			c0.241,0.188,0.516,0.363,0.835,0.52c2.627,1.288,4.598-0.242,5.273-1.233C16.436,269.85,16.398,269.348,16.093,269.104z"/>
		<g opacity="0.6">
			<path fill="#167BB8" d="M8.279,285.559c-1.992-0.978-1.836-2.899-1.476-3.777c0.134-0.327,0.464-0.508,0.739-0.405
				c0.271,0.107,0.388,0.446,0.258,0.771c-0.061,0.156-0.521,1.495,1.042,2.263c1.601,0.786,2.443-0.307,2.535-0.435
				c0.2-0.283,0.551-0.364,0.777-0.184c0.229,0.183,0.257,0.558,0.062,0.846C11.712,285.377,10.24,286.52,8.279,285.559z"/>
		</g>
		<g opacity="0.6">
			<path fill="#167BB8" d="M15.955,280.416c-1.979-1.004-1.797-2.923-1.425-3.797c0.138-0.324,0.471-0.502,0.746-0.395
				c0.27,0.111,0.381,0.451,0.246,0.774c-0.062,0.155-0.542,1.488,1.011,2.277c1.59,0.808,2.448-0.274,2.541-0.4
				c0.205-0.281,0.556-0.356,0.78-0.173c0.226,0.186,0.249,0.561,0.05,0.847C19.39,280.282,17.903,281.404,15.955,280.416z"/>
		</g>
		<g opacity="0.6">
			<path fill="#167BB8" d="M4.839,303.504c-1.979-1.005-1.796-2.924-1.425-3.797c0.138-0.325,0.471-0.502,0.746-0.395
				c0.27,0.11,0.381,0.451,0.246,0.774c-0.062,0.155-0.542,1.488,1.012,2.277c1.59,0.808,2.447-0.274,2.541-0.401
				c0.204-0.28,0.555-0.356,0.779-0.173c0.226,0.186,0.249,0.562,0.05,0.847C8.273,303.369,6.787,304.492,4.839,303.504z"/>
		</g>
	</g>
	<g opacity="0.6">
		<g opacity="0.6">
			<path fill="#167BB8" d="M217.058,294.327c2.397-1.178,2.21-3.491,1.775-4.549c-0.16-0.394-0.559-0.611-0.891-0.487
				c-0.326,0.129-0.466,0.537-0.309,0.929c0.072,0.188,0.628,1.801-1.255,2.725c-1.928,0.945-2.942-0.369-3.053-0.524
				c-0.242-0.34-0.663-0.438-0.936-0.22c-0.275,0.22-0.31,0.671-0.074,1.018C212.924,294.108,214.695,295.485,217.058,294.327z"/>
		</g>
		<g opacity="0.6">
			<path fill="#167BB8" d="M206.202,266.933c2.274-1.116,2.097-3.31,1.685-4.312c-0.152-0.373-0.529-0.579-0.845-0.462
				c-0.31,0.122-0.441,0.51-0.293,0.881c0.068,0.178,0.596,1.707-1.188,2.583c-1.828,0.897-2.79-0.351-2.895-0.496
				c-0.229-0.323-0.629-0.416-0.888-0.21c-0.261,0.209-0.292,0.637-0.07,0.966C202.284,266.727,203.964,268.031,206.202,266.933z"/>
		</g>
		<g opacity="0.6">
			<path fill="#167BB8" d="M216.844,285.559c1.992-0.978,1.836-2.899,1.477-3.777c-0.134-0.327-0.465-0.508-0.74-0.405
				c-0.271,0.107-0.388,0.446-0.258,0.771c0.061,0.156,0.522,1.495-1.042,2.263c-1.601,0.786-2.443-0.307-2.535-0.435
				c-0.2-0.283-0.55-0.364-0.777-0.184c-0.228,0.183-0.256,0.558-0.061,0.846C213.411,285.377,214.883,286.52,216.844,285.559z"/>
		</g>
		<g opacity="0.6">
			<path fill="#167BB8" d="M211.733,276.141c1.979-1.004,1.797-2.923,1.425-3.797c-0.138-0.324-0.471-0.502-0.746-0.395
				c-0.27,0.11-0.38,0.451-0.246,0.774c0.062,0.155,0.542,1.488-1.011,2.277c-1.59,0.808-2.448-0.274-2.541-0.4
				c-0.205-0.281-0.556-0.356-0.78-0.173c-0.226,0.185-0.249,0.561-0.049,0.847C208.299,276.007,209.785,277.129,211.733,276.141z"
				/>
		</g>
		<g opacity="0.6">
			<path fill="#167BB8" d="M220.285,301.794c1.978-1.005,1.796-2.924,1.424-3.797c-0.138-0.325-0.471-0.502-0.745-0.396
				c-0.271,0.111-0.381,0.452-0.247,0.775c0.062,0.155,0.543,1.488-1.011,2.277c-1.59,0.807-2.447-0.275-2.541-0.401
				c-0.205-0.28-0.556-0.356-0.78-0.173c-0.226,0.186-0.249,0.562-0.049,0.847C216.85,301.659,218.337,302.781,220.285,301.794z"/>
		</g>
		<g opacity="0.6">
			<path fill="#167BB8" d="M206.583,283.849c1.991-0.978,1.836-2.899,1.476-3.778c-0.134-0.326-0.464-0.508-0.74-0.404
				c-0.271,0.107-0.387,0.446-0.257,0.771c0.061,0.156,0.522,1.495-1.042,2.263c-1.601,0.786-2.443-0.308-2.535-0.435
				c-0.2-0.283-0.551-0.364-0.777-0.185c-0.229,0.184-0.257,0.559-0.062,0.847C203.15,283.667,204.621,284.81,206.583,283.849z"/>
		</g>
		<g opacity="0.6">
			<path fill="#167BB8" d="M200.617,275.286c1.979-1.005,1.797-2.924,1.425-3.798c-0.138-0.324-0.471-0.501-0.745-0.395
				c-0.271,0.111-0.381,0.452-0.247,0.775c0.062,0.155,0.542,1.487-1.011,2.276c-1.59,0.808-2.447-0.274-2.541-0.4
				c-0.205-0.28-0.556-0.356-0.78-0.173c-0.226,0.186-0.249,0.562-0.049,0.847C197.183,275.151,198.669,276.273,200.617,275.286z"/>
		</g>
	</g>
	<linearGradient id="SVGID_3_" gradientUnits="userSpaceOnUse" x1="106.8838" y1="255.1631" x2="113.0352" y2="220.2769">
		<stop  offset="0.0391" style="stop-color:#57CAF2;stop-opacity:0.8"/>
		<stop  offset="0.6765" style="stop-color:#57CAF2;stop-opacity:0"/>
	</linearGradient>
	<path fill="url(#SVGID_3_)" d="M151,247.197c0,1.134-0.619,2.303-2,2.303H75c-1.381,0-3-1.169-3-2.303L69,227.5h85L151,247.197z"/>
	<linearGradient id="SVGID_4_" gradientUnits="userSpaceOnUse" x1="108.46" y1="277.793" x2="114.2893" y2="244.7331">
		<stop  offset="0.0391" style="stop-color:#57CAF2;stop-opacity:0.8"/>
		<stop  offset="0.6765" style="stop-color:#57CAF2;stop-opacity:0"/>
	</linearGradient>
	<path fill="url(#SVGID_4_)" d="M149.854,270.152c0,1.062-0.58,2.348-1.875,2.348H78.623c-1.294,0-2.812-1.286-2.812-2.348L73,251.5
		h79.666L149.854,270.152z"/>
	<linearGradient id="SVGID_5_" gradientUnits="userSpaceOnUse" x1="110.1851" y1="301.4492" x2="115.7018" y2="270.1623">
		<stop  offset="0.0391" style="stop-color:#57CAF2;stop-opacity:0.8"/>
		<stop  offset="0.6765" style="stop-color:#57CAF2;stop-opacity:0"/>
	</linearGradient>
	<path fill="url(#SVGID_5_)" d="M149.011,294.139c0,0.994-0.543,2.361-1.757,2.361H82.269c-1.212,0-2.634-1.367-2.634-2.361
		L77,276.5h74.646L149.011,294.139z"/>
	<path fill="#51381B" d="M146.118,127.589c-0.188,0.91-1.078,1.497-1.988,1.309c0,0-2.425-1.222-4.918-1.735
		c-2.494-0.513-4.973-0.3-4.973-0.3c-0.911-0.187-1.497-1.077-1.31-1.987l0.035-0.174c0.188-0.91,1.078-1.497,1.987-1.309
		c0,0,1.278-0.461,4.974,0.299c3.696,0.76,4.918,1.735,4.918,1.735c0.911,0.187,1.497,1.077,1.31,1.987L146.118,127.589z"/>
	<path fill="#010101" d="M94,140.5c0,2.209-1.791,4-4,4l0,0c-2.209,0-4-1.791-4-4v-4c0-2.209,1.791-4,4-4l0,0c2.209,0,4,1.791,4,4
		V140.5z"/>
	<path fill="#010101" d="M140,140.5c0,2.209-1.791,4-4,4l0,0c-2.209,0-4-1.791-4-4v-4c0-2.209,1.791-4,4-4l0,0c2.209,0,4,1.791,4,4
		V140.5z"/>
	<path fill="#51381B" d="M78.964,128.589c0.188,0.91,1.078,1.497,1.988,1.309c0,0,2.425-1.222,4.918-1.735
		c2.494-0.513,4.973-0.3,4.973-0.3c0.911-0.187,1.497-1.077,1.31-1.987l-0.035-0.174c-0.188-0.91-1.078-1.497-1.987-1.309
		c0,0-1.278-0.461-4.974,0.299c-3.696,0.76-4.918,1.735-4.918,1.735c-0.911,0.187-1.497,1.077-1.31,1.987L78.964,128.589z"/>
	<circle fill="#FFFFFF" cx="136.91" cy="135.383" r="0.91"/>
	<circle fill="#FFFFFF" cx="90.91" cy="135.383" r="0.91"/>
</g>
</svg>
