<?xml version="1.0" encoding="utf-8"?>
<!-- Generator: Adobe Illustrator 16.0.0, SVG Export Plug-In . SVG Version: 6.00 Build 0)  -->
<!DOCTYPE svg PUBLIC "-//W3C//DTD SVG 1.1//EN" "http://www.w3.org/Graphics/SVG/1.1/DTD/svg11.dtd">
<svg version="1.1" xmlns="http://www.w3.org/2000/svg" xmlns:xlink="http://www.w3.org/1999/xlink" x="0px" y="0px" width="2200px"
	 height="980px" viewBox="-460 0.25 2200 980" enable-background="new -460 0.25 2200 980" xml:space="preserve">
<g id="Layer_3">
</g>
<g id="Layer_2">
	<path fill="#E1EDF8" d="M1739.5,977.838l-2200,2.662l0.5-543.428c0,0,548.24-142.052,1108.41-142.052
		c553.549,0,1091.59,145.606,1091.59,145.606L1739.5,977.838z"/>
	<path fill="#CFDFF3" d="M-215.878,421.498c96.487-29.027,185.27-9.486,185.27-9.486s72.018,57.139,243.789,31.025
		c21.962-17.6,25.824-30.561,25.824-30.561s123.892-4.877,134.332,19.125c6.679,52.501,147.915,55.231,221.189,58.362
		c73.272,3.131,169.485-10.944,145.958-54.199c64.713-28.162,116.152-17.917,116.152-17.917s223.896,77.153,260.073-6.084
		c13.794-21.491,65.543-13.088,92.832,0.65c36.498,18.375,232.799,38.775,232.869,23.851c0.029-6.007,297.09,39.778,297.09,39.778
		v501.795l-2200,2.662V451.596C-460.5,451.596-222.15,423.385-215.878,421.498z"/>
	<path fill="#97B0C6" d="M1322.209,866.572c-0.929,9.815-29.263,21.627-73.813,26.427c-27.831,3.001-89.935-0.544-127.914-2.832
		c-88.759-5.348-121.321-25.805-119.697-42.962c1.262-13.29,36.41-24.589,97.534-25.369c17.796-0.227,46.111,2.778,66.123,3.984
		C1253.2,831.168,1323.835,849.413,1322.209,866.572z"/>
	
		<linearGradient id="SVGID_1_" gradientUnits="userSpaceOnUse" x1="1179.6846" y1="810.5566" x2="1104.8344" y2="940.201" gradientTransform="matrix(0.9972 0.0753 -0.0753 0.9972 69.3808 -95.2908)">
		<stop  offset="0" style="stop-color:#7F94A3;stop-opacity:0.5"/>
		<stop  offset="0.3817" style="stop-color:#7A8F9D;stop-opacity:0.7236"/>
		<stop  offset="0.8535" style="stop-color:#6B818E"/>
	</linearGradient>
	<path fill="url(#SVGID_1_)" d="M1272.341,889.49c-5.535,0.914-17.752,2.842-23.945,3.509c-27.831,3.001-89.935-0.544-127.914-2.832
		c-88.759-5.348-121.321-25.805-119.697-42.962c1.262-13.29,36.41-24.589,97.534-25.369c17.796-0.227,46.111,2.778,66.123,3.984
		C1255.601,831.312,1308.354,883.543,1272.341,889.49z"/>
	
		<linearGradient id="SVGID_2_" gradientUnits="userSpaceOnUse" x1="1024.8613" y1="889.9336" x2="1273.7793" y2="889.9336" gradientTransform="matrix(0.9972 0.0753 -0.0753 0.9972 69.3808 -95.2908)">
		<stop  offset="0" style="stop-color:#6B818E"/>
		<stop  offset="0.8535" style="stop-color:#6B818E"/>
	</linearGradient>
	<path fill="url(#SVGID_2_)" d="M1257.9,891.542c-27.832,2.998-99.439,0.913-137.419-1.375c-44.12-2.658-74.355-9.05-93.407-16.914
		c-19.275-7.954,61.229-14.324,123.912-7.817C1239.235,874.595,1302.449,886.741,1257.9,891.542z"/>
	<path fill="#E1EDF8" d="M984.75,848.203c2.316-24.429,32.77-30.68,102.636-33.971c69.868-3.292,182.594,25.756,182.594,25.756
		s-131.864-21.168-177.774-18.036c-45.915,3.133-87.737,9.108-91.421,25.253c-8.293,36.39,138.887,44.118,138.887,44.118
		S980.853,889.344,984.75,848.203z"/>
	<path fill="#C3D3E5" d="M1310.19,848.282c0,0,29.557,8.527,26.136,19.14c-3.422,10.613-15.35,20.784-65.793,28.976
		c-36.77,5.97-185.377-0.769-185.377-0.769s143.077,16.352,190.508,10.895c58.864-6.774,85.132-23.53,86.855-34.074
		C1364.242,861.906,1310.19,848.282,1310.19,848.282z"/>
	<path fill="#97B0C6" d="M-86.53,569.511c6.842,6.025-12.631,16.022-36.438,23.793c-29.578,9.656-90.615,19.724-141.656,24.668
		c-92.126,8.921-162.99,0.611-155.518-16.152c11.829-26.536,90.555-45.143,183.101-49.701
		C-134.101,547.047-100.229,557.447-86.53,569.511z"/>
	
		<linearGradient id="SVGID_3_" gradientUnits="userSpaceOnUse" x1="-197.3457" y1="422.8076" x2="-294.2623" y2="590.6721" gradientTransform="matrix(0.7914 -0.0961 0.0787 0.6478 -111.7461 239.6962)">
		<stop  offset="0" style="stop-color:#7F94A3;stop-opacity:0.5"/>
		<stop  offset="0.3817" style="stop-color:#7A8F9D;stop-opacity:0.7236"/>
		<stop  offset="0.8535" style="stop-color:#6B818E"/>
	</linearGradient>
	<path fill="url(#SVGID_3_)" d="M-122.968,593.304c-29.578,9.656-90.615,19.724-141.656,24.668
		c-92.126,8.921-162.99,0.611-155.518-16.152c11.829-26.536,90.555-45.143,183.101-49.701
		C-134.101,547.047-99.161,585.533-122.968,593.304z"/>
	
		<linearGradient id="SVGID_4_" gradientUnits="userSpaceOnUse" x1="-402.5342" y1="527.2988" x2="-77.979" y2="527.2988" gradientTransform="matrix(0.7914 -0.0961 0.0787 0.6478 -111.7461 239.6962)">
		<stop  offset="0" style="stop-color:#6B818E"/>
		<stop  offset="0.8535" style="stop-color:#6B818E"/>
	</linearGradient>
	<path fill="url(#SVGID_4_)" d="M-131.534,595.875c-31.74,8.826-86.568,17.59-133.09,22.097
		c-47.666,4.615-89.64,4.618-118.017,1.224c-26.467-3.165,29.18-18.815,121.305-27.737
		C-142.775,579.977-128.452,595.018-131.534,595.875z"/>
	<path fill="#E1EDF8" d="M-438.97,597.656c32.463-51.351,278.022-46.26,278.022-46.26s-54.413-2.138-113.302,3.38
		c-64.188,6.013-133.768,20.72-145.893,47.043c-4.405,23.64,108.624,19.326,108.624,19.326S-455.673,633.456-438.97,597.656z"/>
	<path fill="#C3D3E5" d="M-81.906,574.082c0,0-5.02,15.535-63.973,29.61c-58.955,14.073-150.7,21.763-197.416,20.531
		c-46.717-1.233,143.675,10.13,209.517-7.203C-67.937,599.688-81.906,574.082-81.906,574.082z"/>
	<path fill="#C3D3E5" d="M-96.511,770.591c12.474,17.509-38.638,26.002-81.078,26.002c-42.439,0-73.346-5.116-81.75-20.858
		c-9.138-17.111,28.762-22.04,71.204-22.04C-145.694,753.694-102.368,762.375-96.511,770.591z"/>
	<path fill="#C3D3E5" d="M1700.312,900.229c10.25,12.397-31.744,18.412-66.613,18.412c-34.866,0-60.26-3.623-67.166-14.771
		c-7.505-12.117,23.632-15.606,58.501-15.606S1695.507,894.41,1700.312,900.229z"/>
	<path fill="#C3D3E5" d="M389.565,835.622c-0.122,26.435,36.121,34.134,99.709,32.458c52.983-1.396,96.861-9.08,99.592-22.167
		c2.73-13.088-41.607-26.917-97.473-31.947C433.269,808.732,389.629,822.354,389.565,835.622z"/>
	<path fill="#97B0C6" d="M1709.869,665.685c-1.994,14.056-13.855,22.314-71.817,31.263c-26.038,4.021-77.796,2.843-118.2-6.062
		c-89.641-19.753-148.965-33.566-145.857-55.49c2.188-15.416,41.255-25.427,96.496-27.104c23.326-0.708,49.537,0.068,77.071,2.552
		C1640.312,619.206,1712.979,643.761,1709.869,665.685z"/>
	
		<linearGradient id="SVGID_5_" gradientUnits="userSpaceOnUse" x1="1516.582" y1="647.6289" x2="1429.7264" y2="798.0672" gradientTransform="matrix(0.9613 0.1087 -0.0953 0.8421 184.7944 -111.0828)">
		<stop  offset="0" style="stop-color:#7F94A3;stop-opacity:0.5"/>
		<stop  offset="0.3817" style="stop-color:#7A8F9D;stop-opacity:0.7236"/>
		<stop  offset="0.8535" style="stop-color:#6B818E"/>
	</linearGradient>
	<path fill="url(#SVGID_5_)" d="M1685.482,686.907c-10.669,3.473-25.855,6.709-47.431,10.04c-26.038,4.021-77.796,2.843-118.2-6.062
		c-89.641-19.753-148.965-33.566-145.857-55.49c2.188-15.416,41.255-25.427,96.496-27.104c23.326-0.708,49.537,0.068,77.071,2.552
		C1640.312,619.206,1703.477,681.048,1685.482,686.907z"/>
	
		<linearGradient id="SVGID_6_" gradientUnits="userSpaceOnUse" x1="1336.8135" y1="740.3906" x2="1632.3447" y2="740.3906" gradientTransform="matrix(0.9613 0.1087 -0.0953 0.8421 184.7944 -111.0828)">
		<stop  offset="0" style="stop-color:#6B818E"/>
		<stop  offset="0.8535" style="stop-color:#6B818E"/>
	</linearGradient>
	<path fill="url(#SVGID_6_)" d="M1678.85,688.878c-10.08,2.744-23.35,5.376-40.798,8.069c-26.038,4.021-77.796,2.843-118.2-6.062
		c-50.479-11.122-91.343-20.362-116.858-30.227c-19.8-7.654,41.852-16.528,138.609-7.801
		C1641.809,661.896,1702.262,682.504,1678.85,688.878z"/>
	<path fill="#F7FAFE" d="M1357.125,623.841c57.338-55.899,301.671,1.112,311.495,10.716
		c-125.433-32.186-259.732-36.817-292.84-3.677c-19.413,27.796,103.985,51.033,103.985,51.033S1335.993,656.702,1357.125,623.841z"
		/>
	<path fill="#C3D3E5" d="M1711.397,690.976c0,0-1.386,20.967-42.956,32.015c-16.272,4.323-65.957,1.684-108.598-5.789
		c-66.285-11.611-129.29-31.808-129.29-31.808s78.426,16.189,103.539,20.403c25.119,4.214,74.287,9.311,110.402,3.525
		C1676.436,708.093,1711.397,690.976,1711.397,690.976z"/>
	<path fill="#97B0C6" d="M154.166,905.377C154.363,927.113,82.205,945.15-7,945.663s-134.45-17.882-158.393-30.372
		c-26.1-13.611-7.331-46.257,102.591-48.291c74.174-1.373,97.02,3.412,127.776,8.573
		C131.69,886.771,154.019,889.074,154.166,905.377z"/>
	
		<linearGradient id="SVGID_7_" gradientUnits="userSpaceOnUse" x1="5.5283" y1="853.3535" x2="-47.573" y2="967.2297" gradientTransform="matrix(1 -0.0072 0.0072 1 -6.739 2.0862)">
		<stop  offset="0" style="stop-color:#7F94A3;stop-opacity:0.5"/>
		<stop  offset="0.3817" style="stop-color:#7A8F9D;stop-opacity:0.7236"/>
		<stop  offset="0.8535" style="stop-color:#6B818E"/>
	</linearGradient>
	<path fill="url(#SVGID_7_)" d="M133.662,924.773C109.27,939.041,59.902,945.279-7,945.663
		c-89.205,0.513-134.45-17.882-158.393-30.372c-26.1-13.611-7.361-47.46,102.591-48.291c29.588-0.225,53.444-1.771,71.202,1.139
		C75.213,879.093,141.793,920.019,133.662,924.773z"/>
	
		<linearGradient id="SVGID_8_" gradientUnits="userSpaceOnUse" x1="12.3438" y1="873.0713" x2="-34.3023" y2="973.1041" gradientTransform="matrix(1 -0.0072 0.0072 1 -6.739 2.0862)">
		<stop  offset="0" style="stop-color:#6B818E"/>
		<stop  offset="0.8535" style="stop-color:#6B818E"/>
	</linearGradient>
	<path fill="url(#SVGID_8_)" d="M122.126,929.577C92.792,937.227,38.79,947.257-7,945.663
		c-66.173-2.304-108.494-9.089-138.088-21.075c-15.532-6.29,85.553-24.779,167.161-18.642
		C89.782,911.037,134.7,926.299,122.126,929.577z"/>
	<path fill="#F7FAFE" d="M-200.234,897.564c5.285-18.578,76.942-37.74,141.463-36.14c95.445,2.362,192.792,26.996,192.792,26.996
		S32.622,867.078-55.986,867.59c-58.109,0.336-114.553,15.277-119.862,33.583c-2.359,32.475,130.114,44.964,175.103,44.685
		C-51.611,953.525-212.106,941.794-200.234,897.564z"/>
	<path fill="#C3D3E5" d="M168.905,924.273c0,0-12.165,11.861-44.477,24.856c-32.315,12.995-130.13,18.043-179.505,12.692
		c-49.374-5.353-120.471-27.513-120.471-27.513S-73.538,971.283-2.9,975.606c70.635,4.323,118.861-7.343,137.581-14.121
		C153.397,954.708,168.905,924.273,168.905,924.273z"/>
	<path fill="#E1EDF8" d="M1279.492,754H0.507V346.722c0,0,275.961-46.994,643.229-47.585
		c385.116-0.62,635.758,47.585,635.758,47.585L1279.492,754L1279.492,754z"/>
	<path fill="#CFDFF3" d="M1245.11,401.75c0,12.875-33.928,11.019-75.776,11.019c-41.848,0-81.092-13.606-81.092-26.481
		s36.772-20.481,81.092-18.2C1215.449,370.457,1245.11,388.873,1245.11,401.75z"/>
	<path fill="#CFDFF3" d="M416.017,357.972c-0.062,17.215,18.743,22.229,51.741,21.138c27.494-0.91,50.264-5.913,51.68-14.437
		c1.418-8.522-21.588-17.529-50.579-20.805C438.695,340.46,416.05,349.331,416.017,357.972z"/>
	<path fill="#CFDFF3" d="M-0.429,434.824c-0.379-20.983,106.146-22.812,106.146-22.812s57.335,57.142,194.208,31.025
		c17.5-17.603,20.551-30.562,20.551-30.562s98.708-4.877,107.027,19.125c5.322,52.501,117.855,43.231,176.242,46.362
		c58.389,3.131,129.635-3.963,116.304-42.198c51.563-28.161,92.552-17.917,92.552-17.917s178.404,77.153,207.231-6.084
		c10.991-21.489,52.229-13.088,73.972,0.65c29.08,18.375,185.697,38.773,185.752,23.851c0.058-14.923-0.062,331.736-0.062,331.736
		H-0.429C-0.429,768-0.049,455.808-0.429,434.824z"/>
	<path fill="#97B0C6" d="M433.851,563.131c0,11.646-23.79,27.587-62.333,36.414c-24.078,5.516-78.657,5.75-112.047,5.75
		c-78.029,0-108.185-21.812-108.185-42.164c0-15.764,29.788-31.586,83.155-36.851c15.536-1.532,40.535,0,58.129,0
		C370.596,526.28,433.851,542.778,433.851,563.131z"/>
	
		<linearGradient id="SVGID_9_" gradientUnits="userSpaceOnUse" x1="311.0513" y1="233.4907" x2="242.8036" y2="115.2825" gradientTransform="matrix(1 0 0 -1 0 746)">
		<stop  offset="0" style="stop-color:#7F94A3;stop-opacity:0.5"/>
		<stop  offset="0.3817" style="stop-color:#7A8F9D;stop-opacity:0.7236"/>
		<stop  offset="0.8535" style="stop-color:#6B818E"/>
	</linearGradient>
	<path fill="url(#SVGID_9_)" d="M392.157,593.704c-4.765,1.472-15.283,4.614-20.641,5.841c-24.079,5.516-78.657,5.75-112.047,5.75
		c-78.029,0-108.185-21.812-108.185-42.164c0-15.764,29.788-31.586,83.155-36.851c15.536-1.532,40.535,0,58.129,0
		C372.707,526.28,423.145,584.132,392.157,593.704z"/>
	
		<linearGradient id="SVGID_10_" gradientUnits="userSpaceOnUse" x1="173.6772" y1="156.6206" x2="392.1582" y2="156.6206" gradientTransform="matrix(1 0 0 -1 0 746)">
		<stop  offset="0" style="stop-color:#6B818E"/>
		<stop  offset="0.8535" style="stop-color:#6B818E"/>
	</linearGradient>
	<path fill="url(#SVGID_10_)" d="M379.705,597.15c-24.079,5.515-86.845,8.145-120.235,8.145c-38.785,0-65.743-5.39-83.048-13.311
		c-17.508-8.016,52.335-21.245,107.666-18.025C361.984,578.49,418.248,588.323,379.705,597.15z"/>
	<path fill="#E1EDF8" d="M137.35,565.447c0-28.979,26.104-38.515,86.902-47.358c60.799-8.847,161.742,17.401,161.742,17.401
		s-117.017-15.599-156.891-8.642c-39.873,6.958-75.938,16.979-77.818,36.279c-4.238,43.508,125.055,42.164,125.055,42.164
		S137.35,614.247,137.35,565.447z"/>
	<path fill="#C3D3E5" d="M421.83,542.414c0,0,26.542,7.957,24.432,20.717c-2.111,12.76-11.696,25.604-55.111,38.85
		c-31.646,9.652-162.104,12.27-162.104,12.27s126.419,9.118,167.427-0.689c50.894-12.173,72.465-33.802,73.1-46.355
		C470.206,554.643,421.83,542.414,421.83,542.414z"/>
	<path fill="#97B0C6" d="M891.234,614.355c5.88,10.174-14.953,22.512-39.746,30.824c-30.807,10.331-92.889,16.654-144.278,16.654
		c-92.75,0-161.807-23.08-151.858-47.479c15.745-38.625,96.668-55.331,189.179-48.636
		C847.429,573.173,879.467,593.984,891.234,614.355z"/>
	
		<linearGradient id="SVGID_11_" gradientUnits="userSpaceOnUse" x1="752.8027" y1="199.0322" x2="667.8184" y2="51.835" gradientTransform="matrix(1 0 0 -1 0 746)">
		<stop  offset="0" style="stop-color:#7F94A3;stop-opacity:0.5"/>
		<stop  offset="0.3817" style="stop-color:#7A8F9D;stop-opacity:0.7236"/>
		<stop  offset="0.8535" style="stop-color:#6B818E"/>
	</linearGradient>
	<path fill="url(#SVGID_11_)" d="M851.487,645.183c-30.807,10.331-92.889,16.654-144.278,16.654
		c-92.75,0-161.807-23.08-151.858-47.481c15.745-38.621,96.667-55.328,189.179-48.633
		C847.429,573.173,876.281,636.867,851.487,645.183z"/>
	
		<linearGradient id="SVGID_12_" gradientUnits="userSpaceOnUse" x1="583.7598" y1="104.0859" x2="843.0273" y2="104.0859" gradientTransform="matrix(1 0 0 -1 0 746)">
		<stop  offset="0" style="stop-color:#6B818E"/>
		<stop  offset="0.8535" style="stop-color:#6B818E"/>
	</linearGradient>
	<path fill="url(#SVGID_12_)" d="M842.599,647.831c-32.824,8.752-88.549,14.006-135.389,14.006
		c-47.987,0-89.636-6.179-117.278-15.521c-25.781-8.718,31.795-24.325,124.547-24.325
		C833.846,621.989,845.786,646.98,842.599,647.831z"/>
	<path fill="#E1EDF8" d="M537.298,605.248c39.968-73.333,282.838-29.414,282.838-29.414s-53.664-11.266-112.928-11.549
		c-64.594-0.312-135.853,11.812-151.858,50.07c-7.942,35.312,104.854,45.399,104.854,45.399S515.315,657.248,537.298,605.248z"/>
	<path fill="#C3D3E5" d="M895.131,621.989c0,0-7.328,22.895-67.945,35.619c-60.619,12.725-152.811,10.904-198.976,2.146
		c-46.164-8.758,141.021,36.576,208.967,19.909C905.123,662.998,895.131,621.989,895.131,621.989z"/>
	<path fill="#97B0C6" d="M1162.086,526.753c-0.271,23.899-57.405,42.627-127.614,41.829c-33.462-0.38-64.888-2.139-87.507-9.591
		c-24.838-8.188-49.363-17.188-39.126-35.125c11.845-20.755,44.343-27.506,120.518-35.326c26.977-2.771,70.989-1.736,91.569,3.424
		C1152.634,500.162,1162.252,512.085,1162.086,526.753z"/>
	
		<linearGradient id="SVGID_13_" gradientUnits="userSpaceOnUse" x1="1058.4912" y1="254.7583" x2="993.1572" y2="141.5965" gradientTransform="matrix(0.9999 0.0113 0.0113 -0.9999 -2.3697 721.814)">
		<stop  offset="0" style="stop-color:#7F94A3;stop-opacity:0.5"/>
		<stop  offset="0.3817" style="stop-color:#7A8F9D;stop-opacity:0.7236"/>
		<stop  offset="0.8535" style="stop-color:#6B818E"/>
	</linearGradient>
	<path fill="url(#SVGID_13_)" d="M1140.145,550.681c-22.971,11.266-61.764,18.4-105.672,17.901
		c-33.462-0.38-64.888-2.139-87.507-9.591c-24.837-8.188-49.362-17.188-39.126-35.125c11.845-20.755,44.343-27.506,120.518-35.326
		c13.253-1.361,3.697-2.216,20.357-1.288C1104.52,490.362,1153.902,543.934,1140.145,550.681z"/>
	
		<linearGradient id="SVGID_14_" gradientUnits="userSpaceOnUse" x1="927.958" y1="182.7568" x2="1139.4404" y2="182.7568" gradientTransform="matrix(0.9999 0.0113 0.0113 -0.9999 -2.3697 721.814)">
		<stop  offset="0" style="stop-color:#6B818E"/>
		<stop  offset="0.8535" style="stop-color:#6B818E"/>
	</linearGradient>
	<path fill="url(#SVGID_14_)" d="M1135.24,552.92c-23.368,9.96-59.849,16.127-100.77,15.662c-33.462-0.38-64.888-2.139-87.507-9.591
		c-5.491-1.812-10.967-3.659-16.056-5.636c-17.925-6.968,38.167-20.645,114.74-20.26
		C1112.098,533.433,1151.967,545.792,1135.24,552.92z"/>
	<path fill="#E1EDF8" d="M1098.463,487.427c0,0-186.395-12.001-206.23,33.521c-19.836,45.52,107.387,47.241,107.387,47.241
		s-95.763-11.054-94.16-36.691C910.663,481.895,1098.463,487.427,1098.463,487.427z"/>
	<path fill="#C3D3E5" d="M1157.601,507.616c0,0,9.812,9.177,8.306,24.837c-12.562,50.203-181.399,35.562-181.399,35.562
		s178.715,24.755,198.47-13.439C1188.531,534.387,1157.601,507.616,1157.601,507.616z"/>
	<path fill="#C3D3E5" d="M150.461,478.591c9.939,17.509-30.788,26.002-64.605,26.002s-58.444-5.116-65.14-20.855
		c-7.281-17.111,22.919-22.04,56.737-22.04C111.271,461.694,145.794,470.375,150.461,478.591z"/>
	<path fill="#C3D3E5" d="M111.722,689.288c-10.559,20.869,32.703,30.993,68.625,30.993c35.921,0,62.081-6.102,69.195-24.863
		c7.733-20.396-24.347-26.271-60.267-26.271C153.352,669.146,116.678,679.494,111.722,689.288z"/>
	<path fill="#C3D3E5" d="M648.116,534.229c8.166,12.397-25.294,18.412-53.08,18.412c-27.783,0-48.017-3.623-53.52-14.771
		c-5.979-12.117,18.831-15.606,46.614-15.606C615.917,522.264,644.286,528.41,648.116,534.229z"/>
	<path fill="#C3D3E5" d="M1030.479,655.896c-0.106,28.938,31.506,37.362,86.971,35.527c46.214-1.525,84.484-9.938,86.868-24.265
		c2.382-14.327-36.289-29.465-85.021-34.974C1068.598,626.462,1030.531,641.374,1030.479,655.896z"/>
	<ellipse fill="#97B0C6" cx="564.509" cy="425.043" rx="128.158" ry="38.406"/>
	<path fill="#F7FAFE" d="M686.083,412.862c0,0-26.099-26.228-106.035-32.195c-78.457-5.86-152.546,11.446-152.546,40.903
		c5.995,42.416,153.921,41.879,153.921,41.879s-148.159,2.116-141.882-42.502c1.256-19.029,84.756-37.336,148.5-34.311
		C646.705,389.422,686.083,412.862,686.083,412.862z"/>
	<path fill="#C3D3E5" d="M720.047,425.765c5.886,13.235,5.169,29.649-10.219,40.151c-37.812,31.902-228.114,1.668-228.114,1.668
		s161.562,12.249,206.955-9.251C706.755,448.781,715.939,444.333,720.047,425.765z"/>
	
		<linearGradient id="SVGID_15_" gradientUnits="userSpaceOnUse" x1="581.1958" y1="364.188" x2="534.5791" y2="264.218" gradientTransform="matrix(1 0 0 -1 0 746)">
		<stop  offset="0" style="stop-color:#7F94A3;stop-opacity:0.5"/>
		<stop  offset="0.3817" style="stop-color:#7A8F9D;stop-opacity:0.7236"/>
		<stop  offset="0.8535" style="stop-color:#6B818E"/>
	</linearGradient>
	<path fill="url(#SVGID_15_)" d="M676.013,442.986c0.479,5.6-58.604,20.979-104.958,20.979c-36.076,0-72.6-6.531-98.242-12.393
		c-5.382-1.23-40.948-11.74-30.89-35.873c5.005-12,88.83-32.368,134.793-27.702C622.834,392.682,674.793,428.775,676.013,442.986z"
		/>
	
		<linearGradient id="SVGID_16_" gradientUnits="userSpaceOnUse" x1="470.7192" y1="261.8613" x2="671.3975" y2="261.8613" gradientTransform="matrix(0.9993 0.0373 0.0373 -0.9993 -11.1168 684.6047)">
		<stop  offset="0" style="stop-color:#6B818E"/>
		<stop  offset="0.8535" style="stop-color:#6B818E"/>
	</linearGradient>
	<path fill="url(#SVGID_16_)" d="M669.343,442.644c6.071,8.116-59.703,22.896-104.771,21.214
		c-35.076-1.312-70.386-7.958-95.141-13.664c-5.196-1.197,16.026-25.147,118.949-24.825
		C633.479,425.507,661.931,432.732,669.343,442.644z"/>
	<path fill="#97B0C6" d="M316.171,392.249c0.744,11.521-5.011,19.477-37.375,33.092c-14.539,6.117-44.677,10.904-69.285,8.222
		c-54.588-5.949-90.819-10.483-91.981-28.454c-0.815-12.64,20.459-25.017,52.231-32.482c13.415-3.154,28.701-5.433,44.985-6.487
		C269.601,362.586,315.009,374.277,316.171,392.249z"/>
	
		<linearGradient id="SVGID_17_" gradientUnits="userSpaceOnUse" x1="268.6328" y1="452.8037" x2="219.9917" y2="368.5548" gradientTransform="matrix(1.0314 -0.0667 -0.0645 -0.9979 -12.8329 830.4612)">
		<stop  offset="0" style="stop-color:#7F94A3;stop-opacity:0.5"/>
		<stop  offset="0.3817" style="stop-color:#7A8F9D;stop-opacity:0.7236"/>
		<stop  offset="0.8535" style="stop-color:#6B818E"/>
	</linearGradient>
	<path fill="url(#SVGID_17_)" d="M304.912,412.014c-5.709,3.978-14.07,8.262-26.116,13.327
		c-14.539,6.117-44.677,10.904-69.285,8.222c-54.588-5.949-90.819-10.483-91.981-28.454c-0.815-12.64,20.459-25.017,52.231-32.482
		c13.415-3.154,28.701-5.433,44.985-6.487C269.602,362.586,314.544,405.31,304.912,412.014z"/>
	
		<linearGradient id="SVGID_18_" gradientUnits="userSpaceOnUse" x1="168.5244" y1="396.9082" x2="331.876" y2="396.9082" gradientTransform="matrix(1.0314 -0.0667 -0.0645 -0.9979 -12.8329 830.4612)">
		<stop  offset="0" style="stop-color:#6B818E"/>
		<stop  offset="0.8535" style="stop-color:#6B818E"/>
	</linearGradient>
	<path fill="url(#SVGID_18_)" d="M301.337,414.333c-5.468,3.323-12.799,6.909-22.542,11.008
		c-14.539,6.117-44.677,10.904-69.285,8.222c-30.741-3.352-55.658-6.253-71.771-11.354c-12.501-3.961,22.009-17.925,79.233-21.628
		C276.236,396.742,314.037,406.614,301.337,414.333z"/>
	<path fill="#F7FAFE" d="M106.198,397.685c25.661-51.293,174.886-32.523,181.874-25.894
		c-77.002-11.981-155.417-0.826-170.117,29.486c-7.487,24.5,67.128,29.512,67.128,29.512S98.399,426.447,106.198,397.685z"/>
	<path fill="#C3D3E5" d="M320.472,412.414c0,0,2.03,17.011-20.555,30.498c-8.841,5.279-37.976,8.661-63.683,7.378
		c-39.965-1.993-79.188-11.251-79.188-11.251s47.613,4.328,62.73,4.934c15.118,0.605,44.286-0.744,64.423-9.396
		C302.536,430.049,320.472,412.414,320.472,412.414z"/>
	<path fill="#97B0C6" d="M1011.068,397.435c0,16.408-43.498,29.71-97.155,29.71c-53.656,0-80.771-14.078-95.104-23.609
		c-15.625-10.391-4.156-34.948,61.969-36.007c44.621-0.715,58.336,2.996,76.807,7.025
		C997.649,383.293,1011.068,385.128,1011.068,397.435z"/>
	
		<linearGradient id="SVGID_19_" gradientUnits="userSpaceOnUse" x1="922.875" y1="381.4707" x2="888.7712" y2="308.3351" gradientTransform="matrix(1 0 0 -1 0 746)">
		<stop  offset="0" style="stop-color:#7F94A3;stop-opacity:0.5"/>
		<stop  offset="0.3817" style="stop-color:#7A8F9D;stop-opacity:0.7236"/>
		<stop  offset="0.8535" style="stop-color:#6B818E"/>
	</linearGradient>
	<path fill="url(#SVGID_19_)" d="M998.63,411.986c-14.748,10.664-44.476,15.155-84.717,15.155
		c-53.656,0-80.771-14.079-95.104-23.609c-15.625-10.388-4.169-35.856,61.969-36.007c17.799-0.041,32.155-1.105,42.819,1.168
		C963.724,377.252,1003.545,408.433,998.63,411.986z"/>
	
		<linearGradient id="SVGID_20_" gradientUnits="userSpaceOnUse" x1="925.7441" y1="364.6309" x2="897.5765" y2="304.2251" gradientTransform="matrix(1 0 0 -1 0 746)">
		<stop  offset="0" style="stop-color:#6B818E"/>
		<stop  offset="0.8535" style="stop-color:#6B818E"/>
	</linearGradient>
	<path fill="url(#SVGID_20_)" d="M991.666,415.562c-17.688,5.646-50.222,12.98-77.753,11.579
		c-39.789-2.022-65.206-7.329-82.94-16.507c-9.309-4.812,51.593-18.33,100.644-13.347
		C972.312,401.428,999.246,413.143,991.666,415.562z"/>
	<path fill="#F7FAFE" d="M797.95,390c3.28-14,46.482-28.153,85.282-26.666c57.394,2.197,115.812,21.214,115.812,21.214
		s-60.873-16.55-114.17-16.548c-34.953,0.002-68.983,11.035-72.276,24.83c-1.597,24.502,78.017,34.504,105.074,34.488
		C887.038,432.886,790.569,423.334,797.95,390z"/>
	<path fill="#C3D3E5" d="M1019.829,411.762c0,0-7.381,8.9-26.886,18.569c-19.506,9.669-78.367,13.056-108.034,8.802
		s-72.311-21.289-72.311-21.289s61.155,28.354,103.615,31.921c42.461,3.569,71.533-5.024,82.83-10.062
		C1010.337,434.667,1019.829,411.762,1019.829,411.762z"/>
</g>
</svg>
