<?xml version="1.0" encoding="utf-8"?>
<!-- Generator: Adobe Illustrator 16.0.0, SVG Export Plug-In . SVG Version: 6.00 Build 0)  -->
<!DOCTYPE svg PUBLIC "-//W3C//DTD SVG 1.1//EN" "http://www.w3.org/Graphics/SVG/1.1/DTD/svg11.dtd">
<svg version="1.1" id="Layer_2" xmlns="http://www.w3.org/2000/svg" xmlns:xlink="http://www.w3.org/1999/xlink" x="0px" y="0px"
	 width="1024px" height="900px" viewBox="0 0 1024 900" enable-background="new 0 0 1024 900" xml:space="preserve">
<path fill="#97B0C6" d="M482.45,798.333c0,23.9-56.964,43.275-127.232,43.275c-33.491,0-64.96-1.401-87.68-8.599
	c-24.949-7.899-49.594-16.623-39.553-34.679c11.616-20.888,44.062-28.007,120.203-36.692c26.965-3.074,71.021-2.542,91.676,2.386
	C472.688,771.851,482.45,783.664,482.45,798.333z"/>
<path fill="#97B0C6" d="M954.261,450.435c0,16.408-35.362,29.71-78.983,29.71c-43.622,0-65.664-14.079-77.317-23.61
	c-12.701-10.39-3.38-34.949,50.379-36.007c36.274-0.714,47.425,2.996,62.44,7.024C943.352,436.293,954.261,438.128,954.261,450.435z
	"/>
<path fill="#97B0C6" d="M1006.436,798.355c5.884,10.174-14.966,22.512-39.779,30.825c-30.83,10.331-92.96,16.654-144.392,16.654
	c-92.824,0-161.936-23.08-151.979-47.479c15.758-38.625,96.743-55.331,189.327-48.635
	C962.595,757.173,994.656,777.984,1006.436,798.355z"/>
<path fill="#97B0C6" d="M263.87,464.16c0,11.545-6.058,19.111-38.182,30.606c-14.431,5.165-43.854,7.996-67.466,3.729
	c-52.379-9.465-87.106-16.329-87.106-34.338c0-12.663,21.333-23.643,52.5-29.042c13.16-2.281,28.074-3.567,43.876-3.567
	C220.72,431.551,263.87,446.15,263.87,464.16z"/>
<ellipse fill="#97B0C6" cx="505.449" cy="502.043" rx="128.261" ry="38.406"/>
<path fill="#97B0C6" d="M482.45,798.333c0,23.9-56.964,43.275-127.232,43.275c-33.491,0-64.96-1.401-87.68-8.599
	c-24.949-7.899-49.594-16.623-39.553-34.679c11.616-20.888,44.062-28.007,120.203-36.692c26.965-3.074,71.021-2.542,91.676,2.386
	C472.688,771.851,482.45,783.664,482.45,798.333z"/>
<path fill="#97B0C6" d="M954.261,450.435c0,16.408-35.362,29.71-78.983,29.71c-43.622,0-65.664-14.079-77.317-23.61
	c-12.701-10.39-3.38-34.949,50.379-36.007c36.274-0.714,47.425,2.996,62.44,7.024C943.352,436.293,954.261,438.128,954.261,450.435z
	"/>
<path fill="#97B0C6" d="M1006.436,798.355c5.884,10.174-14.966,22.512-39.779,30.825c-30.83,10.331-92.96,16.654-144.392,16.654
	c-92.824,0-161.936-23.08-151.979-47.479c15.758-38.625,96.743-55.331,189.327-48.635
	C962.595,757.173,994.656,777.984,1006.436,798.355z"/>
<path fill="#97B0C6" d="M263.87,464.16c0,11.545-6.058,19.111-38.182,30.606c-14.431,5.165-43.854,7.996-67.466,3.729
	c-52.379-9.465-87.106-16.329-87.106-34.338c0-12.663,21.333-23.643,52.5-29.042c13.16-2.281,28.074-3.567,43.876-3.567
	C220.72,431.551,263.87,446.15,263.87,464.16z"/>
<ellipse fill="#97B0C6" cx="505.449" cy="502.043" rx="128.261" ry="38.406"/>
<path fill="#97B0C6" d="M337.688,614.131c0,11.645-23.81,27.587-62.383,36.414c-24.098,5.516-78.72,5.75-112.137,5.75
	c-78.091,0-108.271-21.812-108.271-42.164c0-15.764,29.812-31.586,83.221-36.851c15.548-1.532,40.567,0,58.175,0
	C274.384,577.28,337.688,593.778,337.688,614.131z"/>
</svg>
